<?xml version="1.0" encoding="UTF-8"?>
<svg width="1828px" height="442px" viewBox="0 0 1828 442" version="1.1" xmlns="http://www.w3.org/2000/svg" xmlns:xlink="http://www.w3.org/1999/xlink">
    <!-- Generator: Sketch 43.1 (39012) - http://www.bohemiancoding.com/sketch -->
    <title>ElloBusiness</title>
    <desc>Created with Sketch.</desc>
    <defs>
        <polygon id="path-1" points="0.170236643 70.1019557 9.43419515 70.1019557 9.43419515 0.0738761973 0.170236643 0.0738761973"></polygon>
        <path d="M52.7739403,46.8062721 L62.0378988,49.1469121 C60.096082,56.7579758 56.6021224,62.561821 51.556524,66.5583972 C46.5104216,70.5550238 40.342683,72.5533119 33.0523,72.5533119 C25.5073434,72.5533119 19.3713635,71.0167879 14.6438561,67.9436894 C9.91634877,64.8705908 6.31904737,60.4202181 3.85195193,54.5924703 C1.38485649,48.764773 0.151308768,42.5071313 0.151308768,35.8196461 C0.151308768,28.52683 1.54364992,22.1659129 4.32934044,16.7363906 C7.11503096,11.306364 11.0783134,7.18240807 16.2196919,4.36401854 C21.3610704,1.54613328 27.0196618,0.136686373 33.1954661,0.136686373 C40.1990127,0.136686373 46.0884847,1.92030487 50.8638822,5.48703759 C55.6392796,9.05326604 58.965876,14.0692833 60.8441755,20.5335767 L51.7233831,22.6832984 C50.0996573,17.58811 47.7439693,13.8781634 44.6563192,11.5534584 C41.568165,9.22875353 37.6845313,8.06640107 33.0044099,8.06640107 C27.6245892,8.06640107 23.1279624,9.35583067 19.5145296,11.9356984 C15.9010968,14.5150619 13.3624183,17.9784184 11.89799,22.3252636 C10.4335617,26.6721088 9.70159956,31.1540995 9.70159956,35.77174 C9.70159956,41.726918 10.5691662,46.9256843 12.3037954,51.3681399 C14.0389288,55.8105955 16.7369048,59.1304859 20.3982277,61.3278111 C24.0590465,63.5251363 28.0223289,64.6237989 32.2880751,64.6237989 C37.4773437,64.6237989 41.8706287,63.1270621 45.4679301,60.1335885 C49.0652315,57.1401149 51.5005682,52.6977098 52.7739403,46.8062721 Z" id="path-3"></path>
        <polygon id="path-5" points="23.2081153 70.1019557 23.2081153 8.33767267 0.143747176 8.33767267 0.143747176 0.0736240602 55.631718 0.0736240602 55.631718 8.33767267 32.4720738 8.33767267 32.4720738 70.1019557"></polygon>
        <path d="M0.176514075,48.8602825 L8.91519398,48.0960043 C9.32906512,51.5989967 10.2919078,54.4730582 11.8042263,56.7181886 C13.3165447,58.9632686 15.664167,60.7784546 18.8475972,62.1637468 C22.0310275,63.549039 25.6127016,64.2416598 29.5921155,64.2416598 C33.1258995,64.2416598 36.2453083,63.7162059 38.95135,62.6652981 C41.6573918,61.6143903 43.6707917,60.1734262 44.9920539,58.3423051 C46.3133161,56.5111839 46.9736951,54.5128958 46.9736951,52.3473903 C46.9736951,50.1500651 46.3370091,48.2313515 45.063637,46.5912999 C43.7902648,44.9512988 41.6891505,43.5739742 38.7602938,42.4593765 C36.8819943,41.726918 32.7276556,40.5884681 26.2972777,39.0439261 C19.8663957,37.4994345 15.3617033,36.0425354 12.7832004,34.6729262 C9.44047258,32.9215812 6.94968415,30.7481586 5.30982688,28.1526584 C3.67047372,25.5571581 2.85079714,22.6515291 2.85079714,19.4352671 C2.85079714,15.9003036 3.85346425,12.5962979 5.85930257,9.52324977 C7.86463679,6.45020167 10.7934935,4.11742837 14.6453685,2.52492986 C18.4977476,0.932935627 22.779121,0.136686373 27.4910011,0.136686373 C32.6797656,0.136686373 37.2560411,0.972773303 41.2198276,2.64444289 C45.1831101,4.31661675 48.2314399,6.7764672 50.364313,10.0250028 C52.4971861,13.2730341 53.6430193,16.9512115 53.8023169,21.0590306 L44.9204708,21.7282027 C44.4430823,17.3016822 42.8274221,13.9578387 40.0734903,11.6966724 C37.3200626,9.43550603 33.2529342,8.30492286 27.8731135,8.30492286 C22.2699738,8.30492286 18.1872182,9.33212978 15.6243426,11.3860393 C13.0619711,13.4404532 11.7805333,15.9159361 11.7805333,18.814001 C11.7805333,21.3298259 12.6879243,23.3998723 14.5022023,25.0241401 C16.2852257,26.6479036 20.9406459,28.3120091 28.4699752,30.0159522 C35.9988004,31.7193911 41.1638719,33.2085133 43.9651897,34.4823104 C48.0403837,36.3607325 51.0488891,38.7414119 52.990706,41.6234408 C54.9325228,44.5054194 55.9034312,47.8253098 55.9034312,51.5831121 C55.9034312,55.3089938 54.8372468,58.8199538 52.7038696,62.115992 C50.5709965,65.4119798 47.5070394,67.9755595 43.5119983,69.8066302 C39.516453,71.6377514 35.0198263,72.5533119 30.0216139,72.5533119 C23.686512,72.5533119 18.3782744,71.6297838 14.0963969,69.782778 C9.81451933,67.9357218 6.45616424,65.1572204 4.02082749,61.4472233 C1.58549073,57.7372262 0.304052928,53.5416129 0.176514075,48.8602825 Z" id="path-7"></path>
        <path d="M0.164842707,67.976187 L0.164842707,1.21832691 L7.99613157,1.21832691 L7.99613157,7.81020167 C9.84267235,5.23083819 11.9276553,3.29593738 14.2515846,2.00650778 C16.5755139,0.716573901 19.3929631,0.0716069626 22.7039323,0.0716069626 C27.0331958,0.0716069626 30.8538162,1.18655763 34.1642812,3.41545041 C37.4752503,5.64484746 39.9741045,8.78950252 41.6613477,12.8499199 C43.3485909,16.9103372 44.1924646,21.3605082 44.1924646,26.2009876 C44.1924646,31.3918369 43.2613806,36.0651493 41.3987084,40.2209753 C39.5365403,44.3768014 36.8304986,47.5613446 33.2810873,49.7746048 C29.7311718,51.9878651 25.99877,53.0944953 22.0828735,53.0944953 C19.2180383,53.0944953 16.647097,52.4894164 14.3710578,51.2793092 C12.0950186,50.0691515 10.2247848,48.540595 8.76035647,46.6935388 L8.76035647,67.976187 L0.164842707,67.976187 Z M7.94824148,26.8697563 C7.94824148,33.3980925 9.26950367,38.2226872 11.912028,41.3435406 C14.5540483,44.4643939 17.75361,46.0248205 21.5102089,46.0248205 C25.3303252,46.0248205 28.60147,44.4086715 31.323139,41.1763232 C34.0448081,37.9440252 35.4058946,32.9363284 35.4058946,26.1532328 C35.4058946,19.6886369 34.0770708,14.847855 31.4184151,11.631593 C28.7602634,8.41533093 25.5848988,6.80719992 21.8923214,6.80719992 C18.2309985,6.80719992 14.9921166,8.51870718 12.1746673,11.942226 C9.35721814,15.3657448 7.94824148,20.3414706 7.94824148,26.8697563 Z" id="path-9"></path>
        <path d="M37.5963127,35.6113528 L46.4781588,36.7100154 C45.0772478,41.9008142 42.4826135,45.9292605 38.6942559,48.7953544 C34.9058983,51.6614483 30.0669834,53.0944953 24.1780155,53.0944953 C16.7600937,53.0944953 10.8786874,50.8095776 6.53329248,46.2397423 C2.18789757,41.6699574 0.0152001104,35.2610334 0.0152001104,27.0130711 C0.0152001104,18.4784793 2.21159056,11.8544822 6.60487555,7.14153383 C10.9981605,2.42858544 16.6965763,0.0716069626 23.7001229,0.0716069626 C30.4808546,0.0716069626 36.0204769,2.38067937 40.3179818,6.99831991 C44.6159907,11.6159604 46.7644911,18.1122752 46.7644911,26.4876172 C46.7644911,26.997136 46.7488638,27.7614143 46.716601,28.7805024 L8.89704616,28.7805024 C9.21564124,34.3534403 10.791477,38.620711 13.6245535,41.5823649 C16.45763,44.5439684 19.9914141,46.0248205 24.2254015,46.0248205 C27.3770731,46.0248205 30.0669834,45.196802 32.2956367,43.5408658 C34.5242899,41.8848791 36.2911819,39.2417249 37.5963127,35.6113528 Z M9.37443468,21.7107772 L37.6915888,21.7107772 C37.3094763,17.4433552 36.2271605,14.24323 34.4446411,12.1096451 C31.7068407,8.79757091 28.1569253,7.14153383 23.7959031,7.14153383 C19.8482479,7.14153383 16.5297172,8.463237 13.8393027,11.106139 C11.1493924,13.7495454 9.66127107,17.2845088 9.37443468,21.7107772 Z" id="path-11"></path>
        <path d="M35.9191516,33.3662224 L44.3709951,34.464885 C43.4479768,40.2926327 41.0842231,44.8545005 37.2797341,48.1504883 C33.4757491,51.4464761 28.8036935,53.0944953 23.2645752,53.0944953 C16.324546,53.0944953 10.7456034,50.8255127 6.52724321,46.2875475 C2.30938715,41.7495319 0.200207063,35.2450983 0.200207063,26.7742467 C0.200207063,21.2968184 1.10759811,16.5038921 2.92238021,12.3960729 C4.7366582,8.28774951 7.49815163,5.2071373 11.2073646,3.15272345 C14.9160735,1.09881388 18.950939,0.0716069626 23.3124653,0.0716069626 C28.8198249,0.0716069626 33.3245173,1.46491709 36.8260385,4.25153734 C40.3280639,7.03815759 42.5723444,10.9946944 43.5593842,16.1221563 L35.2028168,17.411586 C34.4068332,14.0042039 32.9978565,11.440473 30.9763909,9.72089731 C28.9549253,8.00132166 26.5115228,7.14153383 23.6466877,7.14153383 C19.31692,7.14153383 15.7992674,8.69419466 13.0932257,11.7990121 C10.3871839,14.9038294 9.03466714,19.8160166 9.03466714,26.535372 C9.03466714,33.3503377 10.3397979,38.3022617 12.9500595,41.3912953 C15.5603211,44.4802785 18.9670704,46.0248205 23.1692992,46.0248205 C26.5437856,46.0248205 29.3607307,44.9898478 31.6211427,42.9198518 C33.8815546,40.8499064 35.3142242,37.6653632 35.9191516,33.3662224 Z" id="path-13"></path>
        <path d="M0.105358183,9.96194047 L0.105358183,0.0736240602 L8.70087195,0.0736240602 L8.70087195,9.96194047 L0.105358183,9.96194047 Z M0.105358183,70.1019557 L0.105358183,19.3722048 L8.70087195,19.3722048 L8.70087195,70.1019557 L0.105358183,70.1019557 Z" id="path-15"></path>
        <path d="M36.2250671,45.6904362 C33.0416368,48.3972802 29.9776797,50.3080263 27.0326917,51.422624 C24.0882077,52.5372216 20.9284704,53.0944953 17.5539839,53.0944953 C11.983107,53.0944953 7.70122948,51.7331057 4.70885544,49.0103266 C1.71597729,46.2875475 0.219790276,42.8084072 0.219790276,38.5729562 C0.219790276,36.0890015 0.784893257,33.8200189 1.91509922,31.7660084 C3.04530518,29.7119476 4.5253608,28.0639789 6.3562743,26.8220015 C8.18668369,25.5800241 10.2479737,24.640561 12.5401443,24.0036624 C14.2273875,23.5578334 16.7741318,23.1279395 20.1803769,22.7139303 C27.1204061,21.8859621 32.230026,20.8987442 35.5087323,19.7523268 C35.540491,18.5740393 35.5566224,17.8256456 35.5566224,17.5073981 C35.5566224,14.0042039 34.7450115,11.5362851 33.1212856,10.1031373 C30.9243911,8.16067237 27.6618161,7.1894399 23.3320485,7.1894399 C19.2891173,7.1894399 16.3043048,7.89794541 14.3786194,9.31495643 C12.4524298,10.7319675 11.0278259,13.239724 10.1048075,16.838226 L1.70035,15.6920103 C2.4640708,12.0935083 3.72181562,9.18737501 5.47257624,6.97411474 C7.22384096,4.76085446 9.75445378,3.05741559 13.0654229,1.86329385 C16.3758879,0.668667834 20.2121356,0.0716069626 24.5736619,0.0716069626 C28.9029254,0.0716069626 32.4210822,0.581428365 35.1266198,1.6005669 C37.8326616,2.61920115 39.8223685,3.90106664 41.0957406,5.44565908 C42.3691127,6.99025152 43.2608765,8.94078484 43.7700237,11.297259 C44.056356,12.7621761 44.1995221,15.4055824 44.1995221,19.2268729 L44.1995221,30.691198 C44.1995221,38.6844513 44.3830167,43.7399029 44.7489978,45.8576031 C45.1149789,47.9753538 45.8393794,50.0054617 46.9216953,51.9480779 L37.944069,51.9480779 C37.0528094,50.1647115 36.4796407,48.0788309 36.2250671,45.6904362 Z M35.5087323,26.4876172 C32.3888194,27.7614143 27.7092021,28.8441922 21.4698804,29.7358502 C17.9360964,30.245369 15.4372423,30.8185777 13.9728139,31.4555267 C12.5083856,32.0924253 11.3781796,33.0239209 10.5821961,34.2499632 C9.78621246,35.4760055 9.38847272,36.8373951 9.38847272,38.3341319 C9.38847272,40.6270171 10.2560394,42.5377127 11.9906686,44.0663197 C13.7258019,45.5948762 16.2644804,46.3592049 19.6072083,46.3592049 C22.9181774,46.3592049 25.8626613,45.6347139 28.4416683,44.1857318 C31.0201712,42.7367498 32.914098,40.7543968 34.1239527,38.2385719 C35.0474752,36.2960061 35.5087323,33.4299122 35.5087323,29.6403406 L35.5087323,26.4876172 Z" id="path-17"></path>
        <polygon id="path-19" points="0.111988489 70.1019557 8.70750225 70.1019557 8.70750225 0.0738761973 0.111988489 0.0738761973"></polygon>
        <path d="M0.151231842,9.96194047 L0.151231842,0.0736240602 L8.7462415,0.0736240602 L8.7462415,9.96194047 L0.151231842,9.96194047 Z M0.151231842,70.1019557 L0.151231842,19.3722048 L8.7462415,19.3722048 L8.7462415,70.1019557 L0.151231842,70.1019557 Z" id="path-21"></path>
        <path d="M0.247012008,36.8055249 L8.7462415,35.468038 C9.22514233,38.8755209 10.5509415,41.4868049 12.7337211,43.3020414 C14.9165006,45.1172275 17.9613017,46.0248205 21.8782064,46.0248205 C25.8253575,46.0248205 28.7542141,45.2207046 30.6647764,43.6125231 C32.5753387,42.0042913 33.5280993,40.1174478 33.5280993,37.9519927 C33.5280993,36.009427 32.686242,34.48082 30.9974864,33.3662224 C29.8229191,32.6019441 26.8940625,31.6306612 22.2109165,30.4523737 C15.9095897,28.8601273 11.5389895,27.4828027 9.10415686,26.3204502 C6.66932421,25.1580473 4.82429574,23.5498659 3.5640304,21.4958555 C2.30880611,19.4417946 1.67867344,17.1730642 1.67867344,14.6890085 C1.67867344,12.4278422 2.19790276,10.334095 3.23132035,8.40726254 C4.26473793,6.48093439 5.67623512,4.88036749 7.45572979,3.6065704 C8.79665211,2.61920115 10.6164753,1.7836185 12.9252814,1.09881388 C15.2340875,0.41400927 17.7092486,0.0716069626 20.3507648,0.0716069626 C24.3281622,0.0716069626 27.8216178,0.644966938 30.8311314,1.79168689 C33.8406451,2.93790256 36.0587121,4.49056339 37.4954146,6.44866083 C38.927076,8.40726254 39.915124,11.0264637 40.4545176,14.3067686 L32.0510683,15.4529842 C31.6679476,12.8418515 30.5589141,10.8035744 28.7290088,9.33865733 C26.8991035,7.87374024 24.3130391,7.14153383 20.9708154,7.14153383 C17.0236643,7.14153383 14.205711,7.79456916 12.5169554,9.10013554 C10.8332409,10.4057019 9.9863426,11.9341576 9.9863426,13.6855025 C9.9863426,14.8004532 10.3392169,15.8034549 11.0399244,16.6950121 C11.740632,17.618641 12.8395833,18.3829697 14.3317375,18.9879981 C15.193759,19.3064474 17.7243718,20.0389059 21.923576,21.1853737 C28.008137,22.8094902 32.2476697,24.1390097 34.652256,25.1739824 C37.0568422,26.2089552 38.9421992,27.7136595 40.3083268,29.6880954 C41.6794955,31.6624809 42.3650799,34.114616 42.3650799,37.0443997 C42.3650799,39.9104936 41.5282637,42.6093701 39.8546313,45.1410797 C38.18604,47.6727892 35.7764126,49.6312901 32.6207082,51.0165822 C29.4700448,52.4018744 25.9060145,53.0944953 21.923576,53.0944953 C15.3349087,53.0944953 10.3140116,51.7251382 6.86088454,48.986424 C3.4077575,46.2477098 1.19977261,42.1874437 0.247012008,36.8055249 Z" id="path-23"></path>
        <path d="M23.7097009,60.8984439 L24.949802,68.4935726 C22.5300926,69.0030914 20.3674772,69.2578508 18.456915,69.2578508 C15.336498,69.2578508 12.9167885,68.7642671 11.1977866,67.7770491 C9.47878465,66.7898311 8.26892991,65.4921314 7.56822238,63.88395 C6.86751485,62.2757685 6.51968161,58.8921883 6.51968161,53.7332092 L6.51968161,24.5470685 L0.213313823,24.5470685 L0.213313823,17.8593816 L6.51968161,17.8593816 L6.51968161,5.29639386 L15.0642807,0.137162633 L15.0642807,17.8593816 L23.7097009,17.8593816 L23.7097009,24.5470685 L15.0642807,24.5470685 L15.0642807,54.2109083 C15.0642807,56.6629929 15.2155125,58.2393547 15.5179762,58.9399431 C15.8204399,59.6405315 16.3144639,60.1978555 17.0000482,60.6118144 C17.6856326,61.0258236 18.6635985,61.2328283 19.933946,61.2328283 C20.8917476,61.2328283 22.1469719,61.1213332 23.7097009,60.8984439 Z" id="path-25"></path>
        <path d="M0.196601394,36.8055249 L8.69583089,35.468038 C9.17473172,38.8755209 10.5005309,41.4868049 12.6833104,43.3020414 C14.86609,45.1172275 17.9108911,46.0248205 21.8277958,46.0248205 C25.7749469,46.0248205 28.7038035,45.2207046 30.6143658,43.6125231 C32.524928,42.0042913 33.4776886,40.1174478 33.4776886,37.9519927 C33.4776886,36.009427 32.6358314,34.48082 30.9470758,33.3662224 C29.7725085,32.6019441 26.8436519,31.6306612 22.1605058,30.4523737 C15.8591791,28.8601273 11.4885789,27.4828027 9.05374624,26.3204502 C6.6189136,25.1580473 4.77388513,23.5498659 3.51361978,21.4958555 C2.2583955,19.4417946 1.62826283,17.1730642 1.62826283,14.6890085 C1.62826283,12.4278422 2.14749215,10.334095 3.18090973,8.40726254 C4.21432732,6.48093439 5.6258245,4.88036749 7.40531917,3.6065704 C8.74120044,2.61920115 10.5660647,1.7836185 12.8748708,1.09881388 C15.1836769,0.41400927 17.658838,0.0716069626 20.3003542,0.0716069626 C24.2777516,0.0716069626 27.7712072,0.644966938 30.7807208,1.79168689 C33.7902345,2.93790256 36.0083015,4.49056339 37.445004,6.44866083 C38.8766654,8.40726254 39.8596724,11.0264637 40.404107,14.3067686 L32.0006577,15.4529842 C31.617537,12.8418515 30.5085035,10.8035744 28.6785982,9.33865733 C26.8486929,7.87374024 24.2626284,7.14153383 20.9204047,7.14153383 C16.9732537,7.14153383 14.1553004,7.79456916 12.4665448,9.10013554 C10.7828303,10.4057019 9.93593199,11.9341576 9.93593199,13.6855025 C9.93593199,14.8004532 10.2888063,15.8034549 10.9895138,16.6950121 C11.6902213,17.618641 12.7841317,18.3829697 14.2813269,18.9879981 C15.1433484,19.3064474 17.6739612,20.0389059 21.8731653,21.1853737 C27.9577264,22.8094902 32.1972591,24.1390097 34.6018453,25.1739824 C37.0064316,26.2089552 38.8917886,27.7136595 40.2579162,29.6880954 C41.6290849,31.6624809 42.3146693,34.114616 42.3146693,37.0443997 C42.3146693,39.9104936 41.4778531,42.6093701 39.8042207,45.1410797 C38.1356294,47.6727892 35.726002,49.6312901 32.5702976,51.0165822 C29.4196342,52.4018744 25.8556038,53.0944953 21.8731653,53.0944953 C15.2844981,53.0944953 10.263601,51.7251382 6.81047393,48.986424 C3.35734688,46.2477098 1.149362,42.1874437 0.196601394,36.8055249 Z" id="path-27"></path>
        <polygon id="path-29" points="0.201642455 48.7749313 10.3694633 0.0438718715 16.8825146 0.0438718715 7.87413788 43.2569593 33.1651428 43.2569593 32.0006577 48.7749313"></polygon>
        <path d="M24.6860776,24.1681567 L30.5337088,24.7664783 C29.6918515,27.6695355 27.761125,30.4285215 24.7364882,33.0434363 C21.7118514,35.6584016 18.1074925,36.9658338 13.9183705,36.9658338 C11.3071007,36.9658338 8.90755546,36.3619652 6.72477589,35.154228 C4.54199631,33.9464909 2.88348711,32.1902545 1.73916618,29.8855693 C0.599886305,27.580884 0.0302463683,24.9548752 0.0302463683,22.0074923 C0.0302463683,18.1516086 0.922514233,14.4120106 2.70704996,10.7887487 C4.48654463,7.1655373 6.80039181,4.47291379 9.6334683,2.71148337 C12.4715859,0.949548666 15.5365512,0.0685813163 18.8384464,0.0685813163 C23.0477326,0.0685813163 26.4101206,1.3761648 28.9256102,3.99082748 C31.4360588,6.60599444 32.6963241,10.1737861 32.6963241,14.6945556 C32.6963241,16.4230569 32.5400512,18.1959343 32.2275054,20.0130871 L6.24587505,20.0130871 C6.15513595,20.7000601 6.1097664,21.3205193 6.1097664,21.8745655 C6.1097664,25.1764534 6.87096667,27.6972201 8.38832614,29.4368155 C9.90568562,31.1764108 11.7607962,32.0462337 13.9536579,32.0462337 C16.015452,32.0462337 18.0419587,31.3703043 20.0331779,30.0185464 C22.0294382,28.6667381 23.5770441,26.7166082 24.6860776,24.1681567 Z M7.20871778,15.4258543 L27.015048,15.4258543 C27.0352122,14.8053446 27.0452943,14.3621379 27.0452943,14.096234 C27.0452943,11.0823877 26.2941762,8.77215548 24.7868988,7.1655373 C23.2796215,5.55912082 21.3438539,4.75581172 18.969514,4.75581172 C16.4036137,4.75581172 14.0595202,5.64182181 11.9422744,7.41485055 C9.82502864,9.18767758 8.24717642,11.8580122 7.20871778,15.4258543 Z" id="path-31"></path>
        <path d="M23.1031843,31.7802794 C21.021226,33.5752945 19.0148835,34.8883242 17.0891981,35.7193179 C15.1635126,36.5503621 13.1017185,36.9658338 10.9088568,36.9658338 C7.65233118,36.9658338 5.0259382,36.0074099 3.03471895,34.0905116 C1.03845865,32.1736639 0.0453695525,29.7193604 0.0453695525,26.7277022 C0.0453695525,24.7554347 0.494024016,23.0102923 1.39133294,21.4922751 C2.28864187,19.9743084 3.47833235,18.7554772 4.9604044,17.8357816 C6.44751751,16.9161364 8.26229961,16.256848 10.4097918,15.857967 C11.7607962,15.5920631 14.3266965,15.3815286 18.1024514,15.2264138 C21.8782064,15.071299 24.5902974,14.6723675 26.2286424,14.0297202 C26.69242,12.3898703 26.9243088,11.026968 26.9243088,9.94111394 C26.9243088,8.5450303 26.4151616,7.44808223 25.3968673,6.65026973 C24.0004932,5.54247976 21.9639044,4.98828221 19.2820598,4.98828221 C16.756488,4.98828221 14.6896529,5.54802678 13.0865954,6.66691078 C11.4784968,7.7859965 10.3089705,9.37602406 9.57801663,11.436943 L3.4984966,10.9050848 C4.7385977,7.40375651 6.70461164,4.72252961 9.39653842,2.86074858 C12.0884652,0.99947183 15.4861406,0.0685813163 19.5845235,0.0685813163 C23.9450416,0.0685813163 27.4032097,1.11041219 29.9489457,3.1930654 C31.8998364,4.74471768 32.8727613,6.76110924 32.8727613,9.2430469 C32.8727613,11.1267134 32.5955029,13.3095155 32.0409862,15.7915036 L30.0850543,24.5670378 C29.4650038,27.3592555 29.152458,29.630709 29.152458,31.3813984 C29.152458,32.4894405 29.3944289,34.0849646 29.8834119,36.1680717 L23.8038919,36.1680717 C23.4711818,35.0157039 23.239293,33.5531569 23.1031843,31.7802794 Z M25.3313335,18.2845353 C24.4894762,18.616953 23.5871262,18.8718133 22.6242835,19.0490657 C21.6614408,19.2263686 20.0483011,19.4147151 17.7899056,19.614206 C14.286368,19.9244356 11.8162479,20.3177697 10.3795454,20.7942081 C8.93780183,21.270697 7.85397364,22.0296803 7.12301973,23.0712087 C6.39206583,24.1127874 6.02406835,25.2651048 6.02406835,26.5282617 C6.02406835,28.2124373 6.60379041,29.5974773 7.76827559,30.6833313 C8.93276077,31.7692358 10.5862289,32.3121376 12.7387621,32.3121376 C14.7299814,32.3121376 16.6455847,31.7858264 18.4855721,30.7332041 C20.3255595,29.6805817 21.7773852,28.2124373 22.8410491,26.3288212 C23.899672,24.4451546 24.7314471,21.763726 25.3313335,18.2845353 Z" id="path-33"></path>
        <path d="M22.6394067,43.6558403 C19.2064439,47.6004258 15.6172082,49.5726934 11.8767406,49.5726934 C8.52947586,49.5726934 5.74176892,48.3372716 3.51866085,45.8663775 C1.29051171,43.3954834 0.176437148,39.8110003 0.176437148,35.1129784 C0.176437148,30.8138376 1.05862289,26.8858931 2.81795331,23.329145 C4.5823248,19.7723969 6.78526862,17.1075085 9.43182585,15.334984 C12.0783831,13.5619553 14.7299814,12.6754409 17.3916618,12.6754409 C21.7773852,12.6754409 25.0893625,14.7918805 27.3275938,19.0244571 L31.3150733,0.0438718715 L37.2937721,0.0438718715 L27.1259513,48.7749313 L21.5757427,48.7749313 L22.6394067,43.6558403 Z M6.16017701,33.9827986 C6.16017701,36.4425987 6.40214796,38.3816345 6.89113091,39.7999062 C7.3750728,41.2181779 8.20684793,42.3982304 9.38141523,43.3400637 C10.5559825,44.281897 11.9624387,44.7527884 13.6007836,44.7527884 C16.3279978,44.7527884 18.7981179,43.3345167 21.0111438,40.4979733 C23.980329,36.7306906 25.4674421,32.0769945 25.4674421,26.5368848 C25.4674421,23.7446671 24.7364882,21.561865 23.2745804,19.9884281 C21.8126726,18.415092 19.9726852,17.6284239 17.7546182,17.6284239 C16.3179157,17.6284239 15.0021987,17.9496467 13.8175493,18.5923444 C12.6328998,19.2349917 11.4583325,20.3263927 10.2938473,21.8665476 C9.13440323,23.4067024 8.15139626,25.3623793 7.35490856,27.7335279 C6.55842086,30.1047269 6.16017701,32.1877835 6.16017701,33.9827986 Z" id="path-35"></path>
        <path d="M8.94284289,6.85813163 L10.3694633,0.0438718715 L16.3532031,0.0438718715 L14.9215417,6.85813163 L8.94284289,6.85813163 Z M0.171396087,48.7749313 L7.54646889,13.473203 L13.5604551,13.473203 L6.18538232,48.7749313 L0.171396087,48.7749313 Z" id="path-37"></path>
        <path d="M0.142738963,36.1680717 L7.51781177,0.866343393 L12.9671991,0.866343393 L11.6716463,7.01591909 C14.0409452,4.60049521 16.2590122,2.83856051 18.3208063,1.73066969 C20.3775594,0.622778865 22.484723,0.0685813163 24.6322152,0.0685813163 C27.490497,0.0685813163 29.7337693,0.84415532 31.3620321,2.39530333 C32.9902949,3.94695561 33.8019058,6.01871649 33.8019058,8.61149367 C33.8019058,9.91897629 33.5145653,11.9798953 32.9398843,14.7942506 L28.4533397,36.1680717 L22.4393535,36.1680717 L27.1224995,13.797048 C27.5913182,11.62534 27.823207,10.0186713 27.823207,8.97714302 C27.823207,7.80263755 27.4199221,6.84976068 26.6083112,6.11846196 C25.8017414,5.38716325 24.6322152,5.02156432 23.1047736,5.02156432 C20.0246851,5.02156432 17.2823477,6.12950557 14.8777614,8.34558978 C12.4782162,10.5616236 10.7088036,14.3621379 9.57960587,19.7471328 L6.15672519,36.1680717 L0.142738963,36.1680717 Z" id="path-39"></path>
        <path d="M0.354463541,39.3591704 L6.43398357,39.9242603 C6.39365508,41.2982063 6.5600101,42.328691 6.93304865,43.015664 C7.31112825,43.702637 7.91101456,44.2344952 8.7276665,44.6112386 C9.81653576,45.098771 11.2229919,45.3425373 12.9470349,45.3425373 C16.5816401,45.3425373 19.197951,44.400704 20.7909264,42.5170375 C21.8344261,41.2538806 22.7972688,38.5059886 23.6844956,34.2733615 L24.2793409,31.4146301 C21.1589239,34.5835911 17.8318234,36.1680717 14.3131625,36.1680717 C10.7440911,36.1680717 7.75978271,34.855042 5.35519643,32.2290332 C2.95061015,29.6030243 1.75083754,25.8856144 1.75083754,21.076753 C1.75083754,17.1100299 2.69855708,13.4646303 4.59399617,10.1405545 C6.48439418,6.81647857 8.73774862,4.30700752 11.3540595,2.61163704 C13.9703703,0.916266557 16.6572561,0.0685813163 19.4298398,0.0685813163 C24.0575342,0.0685813163 27.6266056,2.26267916 30.1269721,6.65026973 L31.3267447,0.866343393 L36.8416658,0.866343393 L29.7287282,34.9381465 C28.9524048,38.6832915 27.9341104,41.6029393 26.673845,43.69709 C25.4085386,45.791291 23.6542493,47.4144999 21.4059359,48.5668677 C19.1576225,49.7192355 16.5614759,50.295369 13.612455,50.295369 C10.7793785,50.295369 8.33446371,49.9297196 6.28779279,49.1984209 C4.23608081,48.4671222 2.70863921,47.3979092 1.70042693,45.9907316 C0.692214654,44.5835035 0.188108516,42.9713383 0.188108516,41.1541855 C0.188108516,40.6001897 0.243560191,40.0018177 0.354463541,39.3591704 Z M7.865645,20.5449453 C7.865645,22.9604196 8.09753383,24.7775723 8.56131147,25.9964035 C9.22673158,27.7027672 10.1744511,29.0047028 11.4044701,29.9022103 C12.6344891,30.7996674 14.0006167,31.2484212 15.5078941,31.2484212 C17.4789491,31.2484212 19.4399219,30.5559012 21.3908127,29.1709116 C23.3366624,27.7858716 24.9195557,25.6418482 26.1243693,22.738791 C27.3342241,19.8357842 27.9341104,17.0657042 27.9341104,14.4286013 C27.9341104,11.5255945 27.1325816,9.21536224 25.524483,7.49795497 C23.9214255,5.78049727 21.9302063,4.92171799 19.5609074,4.92171799 C18.0989996,4.92171799 16.6824614,5.31505201 15.3062516,6.10182091 C13.9350829,6.88853938 12.6546533,8.08518249 11.4700039,9.69180068 C10.2853545,11.2984693 9.38804554,13.2208641 8.77807711,15.459086 C8.16810869,17.6973078 7.865645,19.3925774 7.865645,20.5449453 Z" id="path-41"></path>
        <path d="M0.231888824,48.7749313 L10.3997096,0.0438718715 L16.4136959,0.0438718715 L12.7891727,17.4620134 C14.6946939,15.711677 16.423778,14.4762048 17.9764249,13.7555967 C19.5240307,13.0354928 21.1422114,12.6754409 22.8259259,12.6754409 C26.1278212,12.6754409 28.8802407,13.9053662 31.0831845,16.3652166 C33.2911694,18.8250166 34.3901208,22.4039528 34.3901208,27.1019747 C34.3901208,30.22661 33.9465074,33.0852911 33.0592806,35.6780683 C32.1770948,38.2708454 31.0781434,40.4481005 29.7725085,42.2098839 C28.4668736,43.9716674 27.1158692,45.378845 25.7194952,46.4314674 C24.3231212,47.4840897 22.8914597,48.2707578 21.4295519,48.7915724 C19.9676441,49.3123365 18.561188,49.5726934 17.2101836,49.5726934 C14.8862543,49.5726934 12.8345423,48.9577308 11.0651297,47.727856 C9.29067613,46.4979307 7.90438425,44.6198617 6.91129516,42.0935478 L5.51492115,48.7749313 L0.231888824,48.7749313 Z M9.13440323,34.2819846 L9.10415686,35.4121644 C9.10415686,38.4259602 9.82502864,40.7196019 11.2617311,42.2929884 C12.7034747,43.8663749 14.4980925,44.6530933 16.6455847,44.6530933 C18.7527483,44.6530933 20.6834749,43.9162476 22.4428053,42.4425561 C24.2071768,40.9689151 25.6489203,38.6697265 26.7831591,35.5450911 C27.9123569,32.4205062 28.4769558,29.539637 28.4769558,26.9025341 C28.4769558,23.9330136 27.761125,21.6283284 26.3345047,19.9884281 C24.9028432,18.3485278 23.1384718,17.5285776 21.0313081,17.5285776 C18.8636517,17.5285776 16.8673914,18.3651688 15.0526093,20.0383008 C13.2327861,21.7114328 11.7154267,24.2875689 10.5005309,27.7667596 C9.58809875,30.3595368 9.13440323,32.5312953 9.13440323,34.2819846 Z" id="path-43"></path>
        <path d="M0.0302463683,49.0368794 L0.393202788,43.3859303 C1.63330389,43.7404856 2.84315862,43.9177884 4.01772592,43.9177884 C5.23262172,43.9177884 6.22066975,43.6407905 6.97178789,43.0867947 C7.9497538,42.355496 9.01341775,40.9814996 10.1627797,38.9649063 L12.0884652,35.5079037 L6.21058762,0.10642991 L12.1237526,0.10642991 L14.780392,17.956785 C15.3147445,21.4803014 15.76844,25.0038178 16.1465196,28.5273342 L31.9300828,0.10642991 L38.2112453,0.10642991 L15.7129883,40.095086 C13.5402909,43.9953458 11.6146054,46.577029 9.93089093,47.8401859 C8.24717642,49.1033428 6.30636779,49.734896 4.11350609,49.734896 C2.72217315,49.734896 1.35604551,49.5022238 0.0302463683,49.0368794 Z" id="path-45"></path>
        <polygon id="path-47" points="0.065533798 48.7749313 10.263601 0.0438718715 45.4250041 0.0438718715 44.2605189 5.59542857 15.6172082 5.59542857 12.4262163 20.7530089 40.3385732 20.7530089 39.174088 26.3042126 11.2617311 26.3042126 7.73802922 43.2569593 38.4128877 43.2569593 37.2484026 48.7749313"></polygon>
        <path d="M0.2032317,35.4081582 L15.5532636,17.4913902 L6.75157044,0.10642991 L13.3956893,0.10642991 L16.3850387,6.38898276 C17.4940722,8.7379937 18.4922024,10.9873096 19.3743881,13.13688 L29.542209,0.10642991 L36.8870354,0.10642991 L22.0663149,17.956785 L30.9738704,35.4081582 L24.3297515,35.4081582 L20.8060496,28.2281482 C20.0498904,26.6990874 19.197951,24.8043773 18.2451904,22.5439674 L7.74465953,35.4081582 L0.2032317,35.4081582 Z" id="path-49"></path>
        <path d="M23.0795683,31.7802794 C20.9976099,33.5752945 18.9912675,34.8883242 17.065582,35.7193179 C15.1348555,36.5503621 13.0781025,36.9658338 10.8801997,36.9658338 C7.62367406,36.9658338 5.00232214,36.0074099 3.00606183,34.0905116 C1.01484258,32.1736639 0.0167124288,29.7193604 0.0167124288,26.7277022 C0.0167124288,24.7554347 0.465366892,23.0102923 1.36267582,21.4922751 C2.25998474,19.9743084 3.44967523,18.7554772 4.93678834,17.8357816 C6.41886039,16.9161364 8.23364248,16.256848 10.3861757,15.857967 C11.7371801,15.5920631 14.2980393,15.3815286 18.0788354,15.2264138 C21.8545903,15.071299 24.5616403,14.6723675 26.1999853,14.0297202 C26.668804,12.3898703 26.9006928,11.026968 26.9006928,9.94111394 C26.9006928,8.5450303 26.3915456,7.44808223 25.3732512,6.65026973 C23.9768772,5.54247976 21.9352473,4.98828221 19.2584437,4.98828221 C16.732872,4.98828221 14.6660368,5.54802678 13.0579382,6.66691078 C11.4548807,7.7859965 10.2853545,9.37602406 9.55440057,11.436943 L3.47488054,10.9050848 C4.71498164,7.40375651 6.68099558,4.72252961 9.37292236,2.86074858 C12.0648491,0.99947183 15.4574834,0.0685813163 19.5558664,0.0685813163 C23.9214255,0.0685813163 27.3745526,1.11041219 29.9253296,3.1930654 C31.8711793,4.74471768 32.8491452,6.76110924 32.8491452,9.2430469 C32.8491452,11.1267134 32.5718868,13.3095155 32.0173701,15.7915036 L30.0563972,24.5670378 C29.4363467,27.3592555 29.1238009,29.630709 29.1238009,31.3813984 C29.1238009,32.4894405 29.3708129,34.0849646 29.8547548,36.1680717 L23.7752347,36.1680717 C23.4425247,35.0157039 23.2106359,33.5531569 23.0795683,31.7802794 Z M25.3026763,18.2845353 C24.4608191,18.616953 23.5584691,18.8718133 22.5956264,19.0490657 C21.6327836,19.2263686 20.019644,19.4147151 17.7612485,19.614206 C14.2627519,19.9244356 11.7926318,20.3177697 10.3508883,20.7942081 C8.90914471,21.270697 7.82531651,22.0296803 7.09436261,23.0712087 C6.36340871,24.1127874 5.99541123,25.2651048 5.99541123,26.5282617 C5.99541123,28.2124373 6.58017435,29.5974773 7.74465953,30.6833313 C8.90410365,31.7692358 10.5626128,32.3121376 12.710105,32.3121376 C14.7063653,32.3121376 16.6219686,31.7858264 18.456915,30.7332041 C20.2969024,29.6805817 21.7487281,28.2124373 22.812392,26.3288212 C23.876056,24.4451546 24.7078311,21.763726 25.3026763,18.2845353 Z" id="path-51"></path>
        <path d="M0.0504106138,36.1680717 L7.43052448,0.866343393 L13.4445107,0.866343393 L12.2144917,6.68355184 C14.452723,4.1794261 16.4489833,2.45077351 18.2133548,1.4981992 C19.9726852,0.54512061 21.8832475,0.0685813163 23.9450416,0.0685813163 C26.1379033,0.0685813163 27.9728496,0.650513956 29.4448395,1.81387496 C30.9168295,2.97723597 31.8847133,4.60049521 32.353532,6.68355184 C34.1481498,4.46736677 36.0335068,2.81082542 38.019685,1.71402863 C40.0008221,0.617231847 42.0878215,0.0685813163 44.2806832,0.0685813163 C47.2297041,0.0685813163 49.437689,0.766497065 50.9096789,2.16283284 C52.3816688,3.55866433 53.1227049,5.52029169 53.1227049,8.04640379 C53.1227049,9.13225782 52.8656107,10.9272729 52.3564635,13.4313987 L47.6027426,36.1680717 L41.5887564,36.1680717 L46.4432985,12.8330771 C46.8617066,10.9272729 47.0734312,9.56442097 47.0734312,8.74447082 C47.0734312,7.592103 46.7054337,6.68355184 45.9744798,6.01871649 C45.2435259,5.35388114 44.2151494,5.02156432 42.8843092,5.02156432 C41.0896913,5.02156432 39.2648271,5.56466783 37.4046755,6.65026973 C35.5394828,7.73617419 34.0977392,9.15999291 33.0643216,10.9217259 C32.0359451,12.6835093 31.1335951,15.3926226 30.3572717,19.0490657 L26.7680359,36.1680717 L20.7540497,36.1680717 L25.7396594,12.3344506 C26.0925337,10.7167384 26.2689709,9.56442097 26.2689709,8.87739755 C26.2689709,7.72508015 25.9110555,6.79434092 25.1901837,6.08517985 C24.469312,5.37606921 23.5367156,5.02156432 22.3823125,5.02156432 C20.6784338,5.02156432 18.888857,5.56466783 17.0186232,6.65026973 C15.1433484,7.73617419 13.6209479,9.24859392 12.4463806,11.1876298 C11.2718133,13.1267161 10.3089705,15.8911987 9.55785238,19.4812289 L6.06943791,36.1680717 L0.0504106138,36.1680717 Z" id="path-53"></path>
        <path d="M0.127615779,49.6970474 L10.330724,0.866343393 L15.8758915,0.866343393 L14.847515,5.78604429 C16.9093091,3.63632259 18.7543376,2.14619178 20.3826004,1.3151476 C22.0108632,0.484103409 23.7298652,0.0685813163 25.5496883,0.0685813163 C28.9171173,0.0685813163 31.7048243,1.29295952 33.9228913,3.74171593 C36.1359172,6.19047235 37.2449507,9.6973477 37.2449507,14.2624428 C37.2449507,17.9410741 36.6349823,21.2928346 35.4150455,24.3177245 C34.2001497,27.3426648 32.7029544,29.7747802 30.9335419,31.6140706 C29.1590883,33.4534114 27.3644704,34.8052197 25.5496883,35.6694452 C23.7298652,36.533721 21.8697135,36.9658338 19.9641923,36.9658338 C15.7347418,36.9658338 12.4580519,34.8162633 10.1290816,30.5171225 L6.14160201,49.6970474 L0.127615779,49.6970474 Z M12.0245206,21.7415884 C12.0245206,24.3786913 12.2110399,26.2069381 12.5891195,27.2263287 C13.1436363,28.6667381 14.0510273,29.8301495 15.3112927,30.7166135 C16.5765991,31.603027 18.0385069,32.0462337 19.7020571,32.0462337 C23.1551842,32.0462337 25.9479322,30.1016508 28.0752601,26.2124851 C30.202588,22.3233193 31.2612109,18.3510491 31.2612109,14.2956745 C31.2612109,11.3040163 30.5504212,8.99378408 29.1187598,7.36497781 C27.6921394,5.73612112 25.9126448,4.92171799 23.7853169,4.92171799 C22.2578753,4.92171799 20.841337,5.32614605 19.5357021,6.13505259 C18.2250261,6.9439087 17.0151714,8.15164585 15.8960558,9.75831447 C14.7769402,11.3649327 13.8493849,13.3317036 13.118431,15.6585265 C12.3874771,17.9853998 12.0245206,20.0130871 12.0245206,21.7415884 Z" id="path-55"></path>
        <polygon id="path-57" points="0.137697902 48.7749313 10.3055187 0.0438718715 16.324546 0.0438718715 6.15672519 48.7749313"></polygon>
        <path d="M24.7616935,24.1681567 L30.6093247,24.7664783 C29.7674675,27.6695355 27.8316999,30.4285215 24.8070631,33.0434363 C21.7874673,35.6584016 18.1780673,36.9658338 13.9939864,36.9658338 C11.3776755,36.9658338 8.98317139,36.3619652 6.80039181,35.154228 C4.61761223,33.9464909 2.95406197,32.1902545 1.8147821,29.8855693 C0.675502225,27.580884 0.100821228,24.9548752 0.100821228,22.0074923 C0.100821228,18.1516086 0.993089093,14.4120106 2.77762482,10.7887487 C4.56216055,7.1655373 6.87096667,4.47291379 9.70404316,2.71148337 C12.5421607,0.949548666 15.6121671,0.0685813163 18.9090212,0.0685813163 C23.1183075,0.0685813163 26.4806954,1.3761648 28.9961851,3.99082748 C31.5116747,6.60599444 32.766899,10.1737861 32.766899,14.6945556 C32.766899,16.4230569 32.6106261,18.1959343 32.3031213,20.0130871 L6.31644991,20.0130871 C6.23075187,20.7000601 6.18538232,21.3205193 6.18538232,21.8745655 C6.18538232,25.1764534 6.94154153,27.6972201 8.458901,29.4368155 C9.97626048,31.1764108 11.8313711,32.0462337 14.0242328,32.0462337 C16.0860269,32.0462337 18.1125336,31.3703043 20.1087939,30.0185464 C22.1000131,28.6667381 23.65266,26.7166082 24.7616935,24.1681567 Z M7.27929264,15.4258543 L27.0856228,15.4258543 C27.1057871,14.8053446 27.1209102,14.3621379 27.1209102,14.096234 C27.1209102,11.0823877 26.364751,8.77215548 24.8574737,7.1655373 C23.3501963,5.55912082 21.4144288,4.75581172 19.0451299,4.75581172 C16.4741886,4.75581172 14.1300951,5.64182181 12.0178903,7.41485055 C9.90064456,9.18767758 8.32279234,11.8580122 7.27929264,15.4258543 Z" id="path-59"></path>
        <polygon id="path-61" points="0.156272903 5.98616838 29.4070316 5.98616838 29.4070316 0.0666930889 0.156272903 0.0666930889"></polygon>
        <path d="M101.640477,10.6896084 L100.885326,14.1307768 C100.633273,14.5896665 100.318711,15.1630265 99.9411353,15.851361 C99.5635598,16.5396955 99.1224669,17.1705428 98.6188649,17.7439028 C97.9478996,18.891127 96.9825364,19.8089064 95.7232792,20.4972409 C94.4645262,21.1850712 93.247614,21.5294906 92.0725426,21.5294906 L25.6001998,21.5294906 L25.6001998,32.3688685 L71.4258675,32.3688685 C73.8596919,32.3688685 76.0207949,33.1434339 77.9091765,34.6915563 C79.7980622,36.2401829 80.993802,37.8750405 81.497404,39.5956247 C82.0846876,40.7423446 82.3785815,41.9470561 82.3785815,43.2087506 C82.4627673,44.12653 82.2948999,45.2157627 81.8749795,46.4779615 C81.4555632,47.739656 80.8259346,48.9438632 79.9865979,50.0910874 C79.1472612,51.2378074 78.1612296,52.1843304 77.027999,52.9301522 C75.8952725,53.6754698 74.6571878,54.0481285 73.3142491,54.0481285 L25.6001998,54.0481285 L25.6001998,97.9230256 L92.0725426,97.9230256 C93.4991629,98.1524705 94.7790884,98.6401038 95.912319,99.3854214 C97.0455496,100.131243 97.9478996,100.962792 98.6188649,101.880571 C99.7102547,102.912821 100.465406,104.117028 100.885326,105.493697 C101.388928,106.411476 101.640477,107.501213 101.640477,108.762908 L100.885326,112.204076 C100.381724,114.039131 99.2696659,115.702732 97.5491517,117.193871 C95.8286374,118.685011 94.002765,119.430328 92.0725426,119.430328 L9.86331681,119.430328 L6.59005483,118.741994 L3.44271857,116.677494 L0.924809226,113.92466 C0.421257605,112.892411 0.169456589,111.974631 0.169456589,111.171827 L0.169456589,8.45315151 L0.924809226,5.87227521 C1.93196288,4.49560614 2.77124919,3.57782676 3.44271857,3.11893707 C5.70882689,1.16890802 7.8490095,0.194145638 9.86331681,0.194145638 L92.0725426,0.194145638 C93.4991629,0.194145638 94.8421017,0.538060768 96.1013588,1.2263953 L99.1224669,3.97922917 C99.5423873,4.6675637 99.8987904,5.29841096 100.192684,5.87227521 C100.486578,6.44563518 100.717459,6.96150788 100.885326,7.42039757 C101.388928,8.33817695 101.640477,9.42791389 101.640477,10.6896084 Z" id="path-63"></path>
        <path d="M12.5225006,0.194145638 L16.1732372,0.710522608 C17.9355923,1.16890802 19.278531,1.68528499 20.2020535,2.25864497 C23.3073473,3.74978432 24.8599942,5.64283036 24.8599942,7.93677454 L24.8599942,111.687699 C24.6084453,113.064368 24.146684,114.182849 23.4752147,115.043141 C22.8037453,115.903433 21.7965412,116.734982 20.4536025,117.537786 L16.4252903,118.914455 L12.5225006,119.430328 L8.36765779,118.914455 L4.33934564,117.193871 C2.99640689,116.276092 1.94736201,115.300825 1.19170691,114.268576 C0.436555916,113.236326 0.0589804182,112.032119 0.0589804182,110.65545 L0.0589804182,8.9690242 C0.310529381,6.10121578 1.69530894,3.92224616 4.2133191,2.43110681 C6.73132927,0.939463178 9.50088839,0.194145638 12.5225006,0.194145638 Z" id="path-65"></path>
        <path d="M12.6142479,0.194145638 L16.2654887,0.710522608 C18.0278437,1.16890802 19.3707825,1.68528499 20.2938008,2.25864497 C23.3995987,3.74978432 24.9522456,5.64283036 24.9522456,7.93677454 L24.9522456,111.687699 C24.7001926,113.064368 24.2389355,114.182849 23.5674661,115.043141 C22.8959967,115.903433 21.8887926,116.734982 20.5458539,117.537786 L16.5170376,118.914455 L12.6142479,119.430328 L8.45990921,118.914455 L4.43109296,117.193871 C3.08865831,116.276092 2.03910933,115.300825 1.28395833,114.268576 C0.528807339,113.236326 0.150727735,112.032119 0.150727735,110.65545 L0.150727735,8.9690242 C0.402780805,6.10121578 1.78756037,3.92224616 4.30557053,2.43110681 C6.82307658,0.939463178 9.59313981,0.194145638 12.6142479,0.194145638 Z" id="path-67"></path>
        <path d="M0.242979159,44.0589853 C0.242979159,37.6350339 1.43922303,31.7279637 3.83120665,26.3367663 C6.22319028,20.9455689 9.64304632,16.3289369 14.0912789,12.4858618 C18.5395115,8.64329097 23.8694257,5.63226862 30.0800133,3.45279473 C36.291105,1.27382511 43.2568436,0.184088166 50.9787415,0.184088166 C54.7555046,0.184088166 58.2807189,0.470516016 61.55388,1.04438027 C64.8270412,1.61774024 68.0165207,2.42054506 71.1218145,3.45279473 C77.2487205,5.63226862 82.5993031,8.61454733 87.1735622,12.4001351 C91.7473172,16.1852187 95.2513589,20.716124 97.6856875,25.9928512 C99.1964936,28.745685 100.245538,31.4697753 100.832822,34.1656261 C101.42061,36.8609727 101.714,39.8719951 101.714,43.1986932 C101.714,46.524887 101.399437,49.6221403 100.769809,52.4894444 C100.140684,55.3572529 99.1964936,58.167574 97.9372365,60.9204079 C93.9926059,69.1794137 87.9287132,75.5741172 79.7455582,80.1050226 C71.5624033,84.6359279 61.9732963,86.9011284 50.9787415,86.9011284 C43.424711,86.9011284 36.542654,85.8401351 30.3320663,83.7181485 C24.1209746,81.5961619 18.8752461,78.7570971 14.5948809,75.2014584 C12.1610565,73.1364548 10.12598,71.0432119 8.48914737,68.9212253 C6.85231474,66.7992386 5.3626811,64.3615763 4.01974235,61.6087424 C1.50173219,56.3320152 0.242979159,50.4824324 0.242979159,44.0589853 Z M25.6736215,43.5426083 C25.6736215,50.1955003 27.9189103,55.4717231 32.4089836,59.3717812 C36.8995611,63.2718393 42.9634539,65.2218684 50.601166,65.2218684 C58.490427,65.2218684 64.6591738,63.2718393 69.1074064,59.3717812 C73.555639,55.4717231 75.7797552,50.1955003 75.7797552,43.5426083 C75.7797552,37.0041866 73.5349706,31.7567074 69.0443931,27.799162 C64.5543198,23.8421209 58.490427,21.8633482 50.8527149,21.8633482 C47.0759517,21.8633482 43.6555916,22.3792209 40.5921386,23.4119749 C37.5286856,24.4442245 34.885153,25.9066202 32.6610367,27.799162 C30.4369204,29.6917038 28.7164062,31.9861522 27.4989898,34.6814988 C26.2820776,37.3773497 25.6736215,40.3308847 25.6736215,43.5426083 Z" id="path-69"></path>
        <path d="M38.5702458,21.5294906 L9.74041573,21.5294906 L7.7260076,20.841156 L5.46005051,19.8089064 C1.85065056,17.3999876 0.0464546909,14.3602217 0.0464546909,10.6896084 C0.0464546909,9.88680358 0.256162844,8.73957936 0.675579152,7.24844 C1.26336691,5.75730065 1.93483629,4.61007642 2.68998728,3.8072716 C3.44564238,2.77502194 4.49468726,1.91472984 5.83762601,1.2263953 C7.18056476,0.538060768 8.4811586,0.194145638 9.74041573,0.194145638 L91.9495407,0.194145638 C93.376161,0.194145638 94.6979273,0.538060768 95.9153437,1.2263953 C97.1322559,1.91472984 98.1601283,2.77502194 98.999465,3.8072716 C99.4193854,4.49560614 99.7757885,5.12645339 100.069682,5.69981337 C100.363576,6.27367762 100.594457,6.78955031 100.762324,7.24844 C101.265926,8.51013451 101.517475,9.65735874 101.517475,10.6896084 C101.517475,14.5896665 99.7127752,17.6294325 96.1038794,19.8089064 L93.9639488,20.841156 L91.9495407,21.5294906 L63.8748616,21.5294906 L63.8748616,110.139073 C63.8748616,111.630212 63.4554453,112.949394 62.6161086,114.096618 C61.7767719,115.243842 60.727727,116.161117 59.4684699,116.849452 C58.2933984,117.767231 57.2443536,118.340591 56.3213352,118.570036 C55.3978128,118.799481 54.4747944,119.086413 53.5517761,119.430328 L51.1597925,119.430328 C48.977517,119.430328 46.9419364,119.115157 45.0535548,118.484309 C43.1651732,117.853462 41.6755396,116.791965 40.5846539,115.300825 L39.3253968,113.580241 L38.5702458,112.204076 L38.5702458,21.5294906 Z" id="path-71"></path>
        <path d="M0.199702957,43.7145659 C0.199702957,38.3233684 1.03903968,33.2765904 2.71720901,28.5737275 C4.39588245,23.8703603 6.89272016,19.6551307 10.2082262,15.9270302 C13.5232282,12.1994339 17.6150577,9.07343702 22.4827066,6.550048 C27.3508596,4.02665898 33.0160044,2.2485875 39.478645,1.21633783 C41.2410001,0.871918426 43.0038593,0.642977856 44.7662143,0.528003296 C46.5305858,0.413533011 48.2092593,0.356045731 49.8022347,0.356045731 L60.3783814,0.184088166 L72.083726,0.184088166 C78.3800116,1.10136327 83.9604666,2.90817839 88.8301319,5.60352498 C93.6997972,8.29937584 97.1781295,11.8837582 99.2802521,16.3571762 C100.873228,19.2249847 101.669715,22.4941955 101.669715,26.1648087 C101.669715,38.7822581 95.2524441,47.5001537 82.4078197,52.3174869 L80.5224627,52.8338638 L78.7580912,53.3497365 L74.7302832,54.2100286 L72.083726,54.554448 L28.0223289,54.554448 C28.4417453,55.2427826 29.0083606,56.0455874 29.7216707,56.9628625 C30.4349809,57.8806419 31.0015962,58.5114891 31.4215166,58.8559085 L36.7090859,62.2970769 C40.5695307,64.3615763 44.5146654,65.3938259 48.5419693,65.3938259 L72.7138586,65.3938259 L74.7302832,66.254118 L76.9937198,67.2863677 C80.6031197,69.810261 82.4078197,72.7925397 82.4078197,76.2337081 C82.3271627,76.5776232 82.2011362,77.1514875 82.0297401,77.9542923 C81.8633851,78.7570971 81.6516605,79.5599019 81.3996074,80.363211 C80.9811993,81.6249056 79.972987,83.029814 78.3800116,84.5784406 C76.7870362,86.1270673 74.8966382,86.9011284 72.7138586,86.9011284 L46.1525062,86.9011284 C43.3814348,86.9011284 40.4858491,86.5572133 37.4642369,85.8688788 L29.1550554,83.2880025 C19.2513862,79.6173892 11.9499129,74.3411663 7.2496273,67.4588295 C2.54934167,60.5764927 0.199702957,52.6619063 0.199702957,43.7145659 Z M75.7384955,27.5409735 C75.4864424,25.705919 75.0226648,24.32925 74.3522036,23.4119749 C73.3439913,22.3792209 71.7913444,21.8633482 69.6942629,21.8633482 L49.8022347,21.8633482 C48.3756143,21.8633482 47.3270735,21.9208355 46.6566123,22.0353058 C45.9831265,22.1497761 45.0601082,22.3222379 43.8850368,22.5516828 C43.3814348,22.6661531 42.7729787,22.8381106 42.0596685,23.0675555 C41.3458542,23.2970003 40.6537165,23.5264452 39.9822471,23.75589 C39.3107777,23.9853348 38.7234941,24.2147797 38.219892,24.4442245 C37.71629,24.6736694 37.3382104,24.8456269 37.0866614,24.9600972 C35.4921737,25.7634063 34.3589431,26.3655099 33.6874737,26.7669123 C33.0160044,27.1683148 32.344535,27.7134354 31.6730656,28.4012656 C29.8265248,30.0073795 28.6096126,31.4410316 28.0223289,32.7027261 L69.6942629,32.7027261 L72.9659117,32.0148959 C73.6363729,31.6704765 74.1858486,31.3265613 74.6042567,30.9821419 C75.0226648,30.6382268 75.4007444,30.3512947 75.7384955,30.1218498 L75.7384955,27.5409735 Z" id="path-73"></path>
        <path d="M0.0907391049,41.3056471 C0.0907391049,35.7999794 1.39133294,30.4950129 3.99252062,25.3902433 C6.59370829,20.285978 10.0770817,16.0132611 14.4426409,12.5720927 C18.974555,8.67203461 24.0710681,5.63226862 29.7372211,3.45279473 C35.4033741,1.27382511 41.634126,0.184088166 48.4345178,0.184088166 L90.7340638,0.184088166 C93.7536596,0.184088166 96.3145188,1.27382511 98.4116003,3.45279473 C100.508682,5.86171346 101.562264,8.21314492 101.562264,10.5075934 C101.562264,12.4576224 101.204348,14.1782066 100.488518,15.669346 C99.777728,17.1604853 98.5376269,18.5366501 96.7782964,19.7983446 L94.7618719,20.8310986 L93.1235269,21.5189288 L50.1938482,21.5189288 L47.4263055,22.0353058 L43.6505505,22.8955979 C37.2685668,24.272267 32.6559956,26.8813826 29.7977138,30.7244577 C26.9444731,34.5670285 25.5178527,39.1261732 25.5178527,44.4029004 L26.2740119,50.2529875 C26.611763,51.2852372 27.0301711,52.2599996 27.5342773,53.177779 C28.0383834,54.0955583 28.49712,54.9558504 28.9205692,55.7586553 C29.5910303,56.6764346 30.2816557,57.5079831 30.9974864,58.2533006 C31.7082761,58.9991225 32.4845996,59.6587134 33.3264568,60.2320733 C34.163273,60.9204079 35.1311568,61.4937678 36.220026,61.9526575 C37.3139364,62.4115472 38.3624771,62.8129496 39.3656483,63.157369 L41.634126,63.8451993 L44.6537217,64.5335338 L47.0482259,65.2218684 L48.4345178,65.3938259 L91.9943292,65.3938259 C94.4241208,65.3938259 96.3750115,66.2253744 97.8470015,67.8889756 C99.3139503,69.5520725 100.382655,71.1864258 101.058158,72.7925397 C101.390868,73.8247894 101.562264,74.9720136 101.562264,76.2337081 C101.562264,78.7570971 100.760735,81.1660159 99.1677595,83.45996 C97.5747841,85.7544085 95.18028,86.9011284 91.9943292,86.9011284 L46.0400136,86.9011284 L39.3656483,86.0408363 L32.6963241,84.3202521 C21.0313081,80.1907492 12.7185979,74.7425688 7.76827559,67.9747022 C5.08138987,64.304089 3.13049912,60.3470479 1.91560333,56.1025704 C0.695666471,51.8585972 0.0907391049,46.9262894 0.0907391049,41.3056471 Z" id="path-75"></path>
        <path d="M12.6883515,0.194145638 L16.9682126,0.882480173 L21.0010617,2.60306437 C21.6715229,3.06195406 22.2814913,3.49210011 22.8259259,3.89350252 C23.3703606,4.29490493 23.8089329,4.78253826 24.146684,5.35589824 C24.9835002,6.3881479 25.4069494,7.59285941 25.4069494,8.9690242 L25.4069494,32.1969109 L30.8210493,32.3688685 L39.254745,32.540826 L47.8144672,32.7132879 L53.3545937,32.7132879 C56.5455855,32.7132879 59.6508794,33.0284594 62.6704751,33.6593066 C65.6900709,34.2901539 68.7147077,35.1791896 71.7343035,36.3264138 C77.526483,38.5058877 82.7086941,41.4306792 87.2809368,45.1012924 C91.8582205,48.7719057 95.3214297,53.0158789 97.6705643,57.8337163 C99.0971847,60.3571054 100.125561,62.8804944 100.755694,65.4043877 C101.380785,67.9277767 101.698372,70.6231233 101.698372,73.4909317 L101.698372,109.6232 C101.698372,112.719949 100.31208,115.128868 97.5445378,116.849452 C94.8576521,118.570036 92.0447398,119.430328 89.1108421,119.430328 C84.5738868,119.430328 81.135883,118.054163 78.7867484,115.300825 L77.526483,113.580241 L76.7703238,112.204076 L76.7703238,76.588185 C76.6039688,74.7526262 76.37208,73.2039996 76.0796984,71.9423051 C75.7822758,70.6806106 75.3437034,69.4189161 74.7538993,68.1572215 C73.498675,65.4043877 71.7343035,63.0529562 69.4708669,61.1029272 C67.5401404,58.9234533 64.9389527,57.3173394 61.6622628,56.2850897 C58.476312,55.0233952 55.1189652,54.3925479 51.5902222,54.3925479 L25.4069494,54.3925479 L25.4069494,110.65545 C25.4069494,112.032119 24.963336,113.26507 24.0861913,114.354806 C23.2040055,115.444543 22.175629,116.333579 21.0010617,117.021409 C19.7407964,117.939189 18.3998741,118.570036 16.9682126,118.914455 L12.6883515,119.430328 L8.66054346,118.914455 L4.63273541,117.537786 C3.29181308,116.734982 2.24327232,115.931672 1.48711311,115.128868 C0.645255857,113.982148 0.226847762,112.834923 0.226847762,111.687699 L0.226847762,7.93677454 C0.226847762,6.56010547 0.645255857,5.47036852 1.48711311,4.6675637 C2.49532538,3.52033948 3.54386615,2.71753466 4.63273541,2.25864497 L8.66054346,0.710522608 L12.6883515,0.194145638 Z" id="path-77"></path>
        <path d="M89.3695255,86.9011284 L85.4677439,86.3852557 C82.9472132,85.8113915 80.8501317,84.8653727 79.1714583,83.546191 C77.4927848,82.2270092 76.6509276,80.7646135 76.6509276,79.1584995 L76.6509276,41.9939817 C76.4845726,40.0439526 76.2526837,38.5528133 75.9603022,37.5205636 C75.6679206,36.4883139 75.1436502,35.3410897 74.387491,34.0793952 C72.9608706,31.3265613 71.1158422,29.2045747 68.8473646,27.7134354 C63.8970423,23.8133773 58.1048628,21.8633482 51.475867,21.8633482 L25.2875531,21.8633482 L25.2875531,79.1584995 C25.0355001,80.420194 24.5767635,81.509931 23.9012613,82.4277104 L20.5035859,84.8366291 L16.4757778,86.3852557 L12.5739963,86.9011284 C9.97280866,86.9011284 7.15989641,86.0983236 4.13525958,84.4922097 C1.45341492,82.7716255 0.107451534,80.6496389 0.107451534,78.1262499 L0.107451534,8.95896673 C0.445202646,7.58229766 0.782953759,6.550048 1.11566381,5.86171346 C1.70546799,4.71499351 2.58261267,3.79721413 3.76222104,3.1088796 C4.8510903,2.07662993 5.98532911,1.3882954 7.15989641,1.04438027 C8.42016176,0.470516016 9.67538604,0.184088166 10.9356514,0.184088166 L53.2351975,0.184088166 C59.2794301,0.184088166 65.2379646,1.21633783 71.1158422,3.28083716 C76.9886787,5.34584077 82.1103971,8.09867463 86.4709152,11.539843 C90.8364743,14.8660369 94.4458743,18.8810695 97.299115,23.5839324 C100.152356,28.2867953 101.578976,33.2191031 101.578976,38.3808557 L101.578976,78.1262499 C101.578976,80.1907492 100.721996,81.9688207 98.9979527,83.45996 C97.2789508,84.9510994 95.4540865,85.9263661 93.52336,86.3852557 L89.3695255,86.9011284 Z" id="path-79"></path>
        <path d="M4.54747351e-13,44.0589853 C4.54747351e-13,37.6350339 1.19473155,31.7279637 3.58419464,26.3367663 C5.9786988,20.9455689 9.39653842,16.3289369 13.8477956,12.4858618 C18.2940118,8.64329097 23.6224136,5.63226862 29.8330013,3.45279473 C36.04863,1.27382511 43.0103357,0.184088166 50.7332418,0.184088166 C54.5089967,0.184088166 58.0377397,0.470516016 61.3093885,1.04438027 C64.5810374,1.61774024 67.7720292,2.42054506 70.8773231,3.45279473 C77.0022126,5.63226862 82.3558198,8.61454733 86.9280625,12.4001351 C91.5053462,16.1852187 95.0088839,20.716124 97.4386755,25.9928512 C98.9509939,28.745685 99.9995347,31.4697753 100.589339,34.1656261 C101.174102,36.8609727 101.471525,39.8719951 101.471525,43.1986932 C101.471525,46.524887 101.153938,49.6221403 100.523805,52.4894444 C99.8936724,55.3572529 98.9509939,58.167574 97.6907286,60.9204079 C93.7486186,69.1794137 87.6842217,75.5741172 79.5025791,80.1050226 C71.3158954,84.6359279 61.7277966,86.9011284 50.7332418,86.9011284 C43.1817318,86.9011284 36.295642,85.8401351 30.0850543,83.7181485 C23.8744667,81.5961619 18.6317629,78.7570971 14.3519018,75.2014584 C11.9170691,73.1364548 9.88048031,71.0432119 8.24213536,68.9212253 C6.60883147,66.7992386 5.1166773,64.3615763 3.77575498,61.6087424 C1.25522428,56.3320152 4.54747351e-13,50.4824324 4.54747351e-13,44.0589853 Z M25.4271136,43.5426083 C25.4271136,50.1955003 27.675427,55.4717231 32.1619716,59.3717812 C36.6535573,63.2718393 42.7179542,65.2218684 50.3551622,65.2218684 C58.2444232,65.2218684 64.4146824,63.2718393 68.8608985,59.3717812 C73.3121557,55.4717231 75.5352638,50.1955003 75.5352638,43.5426083 C75.5352638,37.0041866 73.2919915,31.7567074 68.8004058,27.799162 C64.3088201,23.8421209 58.2444232,21.8633482 50.6072152,21.8633482 C46.8314603,21.8633482 43.4085796,22.3792209 40.3486553,23.4119749 C37.28369,24.4442245 34.6421738,25.9066202 32.4140247,27.799162 C30.1909166,29.6917038 28.4719147,31.9861522 27.2570189,34.6814988 C26.037082,37.3773497 25.4271136,40.3308847 25.4271136,43.5426083 Z" id="path-81"></path>
        <path d="M12.5976124,0.194145638 L16.2523819,0.710522608 C18.0117123,1.16890802 19.3576757,1.68528499 20.2801899,2.25864497 C23.3854838,3.74978432 24.9381307,5.64283036 24.9381307,7.93677454 L24.9381307,111.687699 C24.6860776,113.064368 24.2222999,114.182849 23.5518388,115.043141 C22.8813776,115.903433 21.8731653,116.734982 20.532243,117.537786 L16.504435,118.914455 L12.5976124,119.430328 L8.44377782,118.914455 L4.41596977,117.193871 C3.07504744,116.276092 2.02650668,115.300825 1.27034747,114.268576 C0.514188261,113.236326 0.136108657,112.032119 0.136108657,110.65545 L0.136108657,8.9690242 C0.388161727,6.10121578 1.77445361,3.92224616 4.28994324,2.43110681 C6.81047393,0.939463178 9.57801663,0.194145638 12.5976124,0.194145638 Z" id="path-83"></path>
        <path d="M0.226847762,44.0589853 C0.226847762,37.6350339 1.42662037,31.7279637 3.81608347,26.3367663 C6.21058762,20.9455689 9.62842724,16.3289369 14.0746434,12.4858618 C18.5259006,8.64329097 23.8543025,5.63226862 30.0648901,3.45279473 C36.2754777,1.27382511 43.2422245,0.184088166 50.9651306,0.184088166 C54.7408856,0.184088166 58.2645875,0.470516016 61.5412774,1.04438027 C64.8129262,1.61774024 68.0039181,2.42054506 71.1092119,3.45279473 C77.2341015,5.63226862 82.5826676,8.61454733 87.1599513,12.4001351 C91.732194,16.1852187 95.2357317,20.716124 97.6705643,25.9928512 C99.1828827,28.745685 100.231423,31.4697753 100.816187,34.1656261 C101.405991,36.8609727 101.698372,39.8719951 101.698372,43.1986932 C101.698372,46.524887 101.385827,49.6221403 100.755694,52.4894444 C100.125561,55.3572529 99.1828827,58.167574 97.9226174,60.9204079 C93.9805074,69.1794137 87.9161105,75.5741172 79.7294268,80.1050226 C71.5477842,84.6359279 61.9596855,86.9011284 50.9651306,86.9011284 C43.4085796,86.9011284 36.5275308,85.8401351 30.3169432,83.7181485 C24.1063555,81.5961619 18.8586106,78.7570971 14.5787495,75.2014584 C12.1489579,73.1364548 10.1123691,71.0432119 8.47402419,68.9212253 C6.83567924,66.7992386 5.34856613,64.3615763 4.0076438,61.6087424 C1.48711311,56.3320152 0.226847762,50.4824324 0.226847762,44.0589853 Z M25.6590024,43.5426083 C25.6590024,50.1955003 27.9022748,55.4717231 32.3938605,59.3717812 C36.8854461,63.2718393 42.949843,65.2218684 50.587051,65.2218684 C58.476312,65.2218684 64.6465712,63.2718393 69.0927873,59.3717812 C73.5390035,55.4717231 75.7671526,50.1955003 75.7671526,43.5426083 C75.7671526,37.0041866 73.5188392,31.7567074 69.0322946,27.799162 C64.5407089,23.8421209 58.476312,21.8633482 50.8391041,21.8633482 C47.0633491,21.8633482 43.6404684,22.3792209 40.5755031,23.4119749 C37.5155788,24.4442245 34.8690216,25.9066202 32.6459135,27.799162 C30.4228054,29.6917038 28.7038035,31.9861522 27.4838667,34.6814988 C26.2689709,37.3773497 25.6590024,40.3308847 25.6590024,43.5426083 Z" id="path-85"></path>
        <path d="M19.5004147,109.096765 C19.5004147,107.720096 19.7524677,106.400915 20.2515328,105.13922 C20.755639,103.877526 21.4311412,102.673318 22.2679574,101.526094 C24.536435,99.1171754 27.2182797,97.9129682 30.3235735,97.9129682 L55.7557281,97.9129682 C57.1823485,97.9129682 58.7753239,97.569053 60.5396954,96.8807185 C62.3847239,96.3068543 63.5844965,95.9054518 64.1289311,95.676007 C64.6733657,95.4465622 65.3639911,95.0451597 66.2058484,94.4717998 C67.7988238,93.5540204 69.2254442,92.4073004 70.4857095,91.0306314 C71.7459749,89.6539623 72.3761075,88.3352848 72.3761075,87.073086 L46.0617671,87.073086 L42.7901183,86.7291709 L38.7623102,85.8688788 C26.0033839,83.1160449 16.3699156,78.0687626 9.86694637,70.7275361 C3.36397719,63.3868139 0.112492595,54.2100286 0.112492595,43.1986932 C0.112492595,38.7247708 0.803118005,34.3945667 2.18940989,30.2080807 C3.5706607,26.0210905 5.6072495,22.2072634 8.29413522,18.766095 C10.9810209,15.3249266 14.272834,12.2851606 18.1746155,9.64730127 C22.0814381,7.00893769 26.5478185,4.88695108 31.5838388,3.28083716 C32.2543,3.05139232 33.1364857,2.73622083 34.230396,2.33481842 C35.3192653,1.93341601 36.8719122,1.56025296 38.8883368,1.21633783 C40.9854183,0.757448141 42.769954,0.470516016 44.2369029,0.356045731 C45.7038517,0.241071171 47.1103079,0.184088166 48.4562713,0.184088166 L90.7558173,0.184088166 C91.5119765,0.298558451 92.1622735,0.413533011 92.7067081,0.528003296 C93.2511427,0.642977856 93.8207827,0.814935421 94.4055458,1.04438027 L98.0552742,2.93692203 C99.4012376,4.08414626 100.238054,5.05890864 100.575805,5.86171346 C101.246266,6.77949284 101.584017,7.81174251 101.584017,8.95896673 L101.584017,79.1584995 C101.584017,81.452948 101.331964,83.6894049 100.827858,85.8688788 C100.323752,88.0483527 99.6532907,90.1703393 98.8114334,92.2348386 C97.6368661,94.6437573 96.4622988,96.7370003 95.2877315,98.5150718 C94.1131642,100.293143 92.7268723,102.042471 91.1338969,103.763055 C87.857207,107.433669 84.1016163,110.530418 79.8671247,113.054311 C75.6275921,115.5777 70.9898156,117.355771 65.9537953,118.388021 L62.55612,119.076356 L59.9095627,119.420271 L28.564243,119.420271 C27.0519246,119.420271 25.7916593,119.133339 24.7884881,118.559979 C23.7802758,117.986619 22.731735,117.068839 21.6378247,115.807145 L20.0045208,112.365976 C19.6667697,111.448197 19.5004147,110.35846 19.5004147,109.096765 Z M25.5396062,44.0589853 C25.5396062,48.1879839 26.593188,52.0305547 28.6902696,55.5866977 C31.0394042,59.1423364 34.6084756,61.6662297 39.3924429,63.157369 L43.672304,64.5335338 C43.9243571,64.6485084 44.2369029,64.734235 44.6149825,64.7917223 C44.9930621,64.8492096 45.3913059,64.9924235 45.809714,65.2218684 L76.277889,65.2218684 L76.277889,21.8633482 L50.2156017,21.8633482 C44.7611733,21.8633482 39.891508,23.1537864 35.6116469,25.7346627 C31.3317857,28.315539 28.478545,31.5560062 27.0519246,35.4560643 C26.3814635,37.0616739 25.9630554,38.4095993 25.7916593,39.4993363 C25.6253043,40.5890732 25.5396062,42.1089562 25.5396062,44.0589853 Z" id="path-87"></path>
        <path d="M18.7577894,108.75285 L19.5139486,105.311682 C20.1037528,103.935013 20.8548709,102.730806 21.7773852,101.698052 C22.7855975,100.665802 24.0055343,99.7767663 25.4321547,99.0314488 C26.8587751,98.2856269 28.2400259,97.9129682 29.5859893,97.9129682 L55.6432356,97.9129682 C59.1719785,97.9129682 62.5696539,96.8232312 65.8413027,94.6437573 C69.0322946,92.2348386 71.2554027,89.7114496 72.515668,87.073086 L43.5598114,87.073086 L40.2881626,86.7291709 L36.0083015,85.6969212 L31.9754524,84.6646715 L28.9558566,83.8043794 C25.1801016,82.4277104 21.5505374,80.5351686 18.067164,78.1262499 C14.5837906,75.7173311 11.498661,72.9357536 8.8117753,69.7815174 C6.12488958,66.6272811 3.98747955,63.2430957 2.39450416,59.6299697 C0.796487699,56.0168438 0,52.3749741 0,48.7043609 L0,8.44258976 C0,7.18089525 0.398243849,6.03367103 1.19473155,5.00142136 C1.99121925,3.9691717 3.06496532,3.1088796 4.40588765,2.42054506 C5.41409993,1.96165537 6.15009489,1.61774024 6.60883147,1.3882954 C7.07260912,1.15885055 7.42548342,1.01563663 7.67753649,0.958149346 C7.92958956,0.900662066 8.20180687,0.843679061 8.49922949,0.786191781 C8.79161105,0.728704501 9.27555295,0.528003296 9.94601411,0.184088166 L12.4615037,0.184088166 L16.4943528,0.871918426 L20.5221609,2.76496447 C21.8630832,3.56776929 22.9771578,4.51429231 23.8593435,5.60352498 C24.7364882,6.69326192 25.1801016,7.81174251 25.1801016,8.95896673 L25.1801016,46.1234846 L25.4321547,47.1557343 C25.6842077,47.5001537 25.8102343,48.0735136 25.8102343,48.8763185 L26.5663935,50.9413221 L27.1914851,52.3174869 C28.7895016,55.9881001 31.370525,59.0566097 34.9345554,61.5225115 C38.5036268,63.9889175 42.5515991,65.2218684 47.0835133,65.2218684 L75.9133434,65.2218684 L75.9133434,9.9912164 C75.9133434,8.50007704 76.3367925,7.23838253 77.1736087,6.20613287 C77.9297679,4.8294638 78.9379802,3.79721413 80.1932045,3.1088796 C82.3759841,1.50326996 84.1201913,0.614234216 85.4207851,0.441772376 C86.721379,0.269814811 87.875782,0.184088166 88.8839943,0.184088166 C90.6433247,0.184088166 92.1959716,0.470516016 93.541935,1.04438027 C94.8828574,1.61774024 95.8457001,2.07662993 96.4355043,2.42054506 C98.8703369,4.02665898 100.382655,5.86171346 100.967418,7.92671707 L100.967418,15.8413035 L100.967418,28.0573505 L101.093445,42.3384011 L101.093445,45.6071076 C101.093445,46.8688021 101.133773,48.3029585 101.219472,49.9085681 C101.30517,51.514682 101.345498,52.8908468 101.345498,54.0380711 L101.345498,56.6189474 L101.471525,68.6630368 L101.471525,76.9220426 C101.471525,81.509931 100.675037,85.7544085 99.0770204,89.6539623 C97.484045,94.1278846 95.346635,98.0274385 92.6597493,101.354137 C89.7208105,105.13922 86.3634636,108.293961 82.5877086,110.81735 C80.6569821,112.308489 78.6002291,113.598927 76.4174495,114.688664 C74.2346699,115.778401 71.9258638,116.667437 69.4960722,117.355771 C68.2358069,117.814157 67.1217323,118.129833 66.1588896,118.30179 C65.1910058,118.473748 63.6585232,118.846911 61.5614416,119.420271 L59.1719785,119.420271 L27.8216178,119.420271 C26.3143404,119.190826 25.0339108,118.731936 23.9853701,118.043602 C22.9317882,117.355771 22.094972,116.638693 21.4648394,115.892871 C20.8347067,115.147554 20.3507648,114.430476 20.0180548,113.742141 C19.6803036,113.054311 19.4736201,112.537934 19.3879221,112.194019 C18.969514,110.81735 18.7577894,109.670125 18.7577894,108.75285 Z" id="path-89"></path>
        <path d="M137.000196,83.4457115 C197.73939,33.5571911 275.416197,3.87681104 354.458729,0.159905407 C369.388538,0.429893913 384.403138,-0.141650675 399.428878,0.159905407 C410.240594,2.78737666 418.931333,11.1637272 424.686108,20.2214532 C433.385871,37.0248843 434.975822,57.9388576 426.534161,74.9347701 C422.292058,82.8177386 414.522673,87.9435869 406.205224,90.7407969 C384.25861,98.9452403 360.42669,99.4453292 337.20983,102.899306 C300.711588,107.857382 265.966576,122.109588 233.71689,139.982838 C225.096474,144.68449 217.345237,151.024833 209.075628,156.396817 C203.252093,161.044261 196.964427,165.241286 193.058865,171.594941 C241.935988,171.956657 290.936768,171.438667 339.674002,171.594941 C354.030642,173.706943 364.618585,186.083904 368.01137,198.951575 C371.954186,209.266053 370.544907,220.196352 370.475492,230.563729 C369.533116,246.539696 360.62551,264.721107 343.370209,268.255113 C270.068034,268.310936 196.603034,267.97166 123.447605,268.255113 C119.976078,268.132372 116.308353,269.418322 114.823105,272.510583 C107.689801,286.438793 104.05812,301.834038 100.038478,316.88915 C98.9629173,326.177128 99.9023695,335.571457 99.4223597,344.853787 C198.48214,344.947935 297.278625,344.89433 396.348689,344.853787 C405.307966,345.090796 412.390657,352.324007 417.909762,358.836004 C423.484521,367.147808 428.652012,376.149206 430.230368,386.192738 C430.874313,399.420682 430.187771,414.298002 420.989951,425.099963 C414.811879,433.443843 405.705453,442.498831 394.500636,441.513955 C289.419005,441.212916 184.569617,441.462949 79.7094403,441.513955 C60.3151665,440.034158 41.8495369,430.925593 28.5789932,417.196924 C11.2421278,399.831459 3.3644203,375.613415 0.241631279,352.148922 C0.0579572336,341.28665 0.34704814,330.534915 0.241631279,319.928764 C2.8043125,285.510121 15.9217753,253.147859 29.8110538,222.052788 C47.1434982,186.762506 67.7050096,152.66786 94.4941676,123.568858 C106.876678,108.500332 121.891378,95.8554502 137.000196,83.4457115 Z" id="path-91"></path>
    </defs>
    <g id="Page-1" stroke="none" stroke-width="1" fill="none" fill-rule="evenodd">
        <g id="ElloBusiness">
            <g id="Group" transform="translate(477.892619, 191.119992)">
                <g id="Group-3" transform="translate(9.322512, 164.393449)">
                    <mask id="mask-2" fill="white">
                        <use xlink:href="#path-1"></use>
                    </mask>
                    <g id="Clip-2"></g>
                    <polygon id="Fill-1" fill="#FFFFFF" mask="url(#mask-2)" points="-4.87082474 75.1446996 14.4752565 75.1446996 14.4752565 -4.96886765 -4.87082474 -4.96886765"></polygon>
                </g>
                <g id="Group-6" transform="translate(32.262793, 163.136265)">
                    <mask id="mask-4" fill="white">
                        <use xlink:href="#path-3"></use>
                    </mask>
                    <g id="Clip-5"></g>
                    <polygon id="Fill-4" fill="#FFFFFF" mask="url(#mask-4)" points="-4.88975262 77.5960558 67.0792123 77.5960558 67.0792123 -4.90605747 -4.88975262 -4.90605747"></polygon>
                </g>
                <g id="Group-9" transform="translate(100.317122, 164.393449)">
                    <mask id="mask-6" fill="white">
                        <use xlink:href="#path-5"></use>
                    </mask>
                    <g id="Clip-8"></g>
                    <polygon id="Fill-7" fill="#FFFFFF" mask="url(#mask-6)" points="-4.89731421 75.1446996 60.6727794 75.1446996 60.6727794 -4.96911979 -4.89731421 -4.96911979"></polygon>
                </g>
                <g id="Group-12" transform="translate(187.527483, 163.136265)">
                    <mask id="mask-8" fill="white">
                        <use xlink:href="#path-7"></use>
                    </mask>
                    <g id="Clip-11"></g>
                    <polygon id="Fill-10" fill="#FFFFFF" mask="url(#mask-8)" points="-4.86454731 77.5960558 60.9444926 77.5960558 60.9444926 -4.90605747 -4.86454731 -4.90605747"></polygon>
                </g>
                <g id="Group-15" transform="translate(254.822201, 182.547327)">
                    <mask id="mask-10" fill="white">
                        <use xlink:href="#path-9"></use>
                    </mask>
                    <g id="Clip-14"></g>
                    <polygon id="Fill-13" fill="#FFFFFF" mask="url(#mask-10)" points="-4.87621868 76.4324651 49.233526 76.4324651 49.233526 -4.97113688 -4.87621868 -4.97113688"></polygon>
                </g>
                <g id="Group-18" transform="translate(306.496532, 182.547327)">
                    <mask id="mask-12" fill="white">
                        <use xlink:href="#path-11"></use>
                    </mask>
                    <g id="Clip-17"></g>
                    <polygon id="Fill-16" fill="#FFFFFF" mask="url(#mask-12)" points="-5.02586127 58.1372391 51.8055524 58.1372391 51.8055524 -4.97113688 -5.02586127 -4.97113688"></polygon>
                </g>
                <g id="Group-21" transform="translate(360.939995, 182.547327)">
                    <mask id="mask-14" fill="white">
                        <use xlink:href="#path-13"></use>
                    </mask>
                    <g id="Clip-20"></g>
                    <polygon id="Fill-19" fill="#FFFFFF" mask="url(#mask-14)" points="-4.84085432 58.1372391 49.4120565 58.1372391 49.4120565 -4.97113688 -4.84085432 -4.97113688"></polygon>
                </g>
                <g id="Group-24" transform="translate(412.607422, 164.393449)">
                    <mask id="mask-16" fill="white">
                        <use xlink:href="#path-15"></use>
                    </mask>
                    <g id="Clip-23"></g>
                    <polygon id="Fill-22" fill="#FFFFFF" mask="url(#mask-16)" points="-4.9357032 75.1446996 13.7419333 75.1446996 13.7419333 -4.96911979 -4.9357032 -4.96911979"></polygon>
                </g>
                <g id="Group-27" transform="translate(431.259350, 182.547327)">
                    <mask id="mask-18" fill="white">
                        <use xlink:href="#path-17"></use>
                    </mask>
                    <g id="Clip-26"></g>
                    <polygon id="Fill-25" fill="#FFFFFF" mask="url(#mask-18)" points="-4.82127111 58.1372391 51.9627566 58.1372391 51.9627566 -4.97113688 -4.82127111 -4.97113688"></polygon>
                </g>
                <g id="Group-30" transform="translate(488.478848, 164.393449)">
                    <mask id="mask-20" fill="white">
                        <use xlink:href="#path-19"></use>
                    </mask>
                    <g id="Clip-29"></g>
                    <polygon id="Fill-28" fill="#FFFFFF" mask="url(#mask-20)" points="-4.92907289 75.1446996 13.7484628 75.1446996 13.7484628 -4.96886765 -4.92907289 -4.96886765"></polygon>
                </g>
                <g id="Group-33" transform="translate(510.404013, 164.393449)">
                    <mask id="mask-22" fill="white">
                        <use xlink:href="#path-21"></use>
                    </mask>
                    <g id="Clip-32"></g>
                    <polygon id="Fill-31" fill="#FFFFFF" mask="url(#mask-22)" points="-4.88982954 75.1446996 13.7873029 75.1446996 13.7873029 -4.96911979 -4.88982954 -4.96911979"></polygon>
                </g>
                <g id="Group-36" transform="translate(528.551834, 182.547327)">
                    <mask id="mask-24" fill="white">
                        <use xlink:href="#path-23"></use>
                    </mask>
                    <g id="Clip-35"></g>
                    <polygon id="Fill-34" fill="#FFFFFF" mask="url(#mask-24)" points="-4.79404938 58.1372391 47.4061413 58.1372391 47.4061413 -4.97113688 -4.79404938 -4.97113688"></polygon>
                </g>
                <g id="Group-39" transform="translate(576.193316, 165.906273)">
                    <mask id="mask-26" fill="white">
                        <use xlink:href="#path-25"></use>
                    </mask>
                    <g id="Clip-38"></g>
                    <polygon id="Fill-37" fill="#FFFFFF" mask="url(#mask-26)" points="-4.82774756 74.3005947 29.9908634 74.3005947 29.9908634 -4.90558121 -4.82774756 -4.90558121"></polygon>
                </g>
                <g id="Group-42" transform="translate(604.671861, 182.547327)">
                    <mask id="mask-28" fill="white">
                        <use xlink:href="#path-27"></use>
                    </mask>
                    <g id="Clip-41"></g>
                    <polygon id="Fill-40" fill="#FFFFFF" mask="url(#mask-28)" points="-4.84445999 58.1372391 47.3557306 58.1372391 47.3557306 -4.97113688 -4.84445999 -4.97113688"></polygon>
                </g>
                <g id="Group-45" transform="translate(729.186077, 181.538778)">
                    <mask id="mask-30" fill="white">
                        <use xlink:href="#path-29"></use>
                    </mask>
                    <g id="Clip-44"></g>
                    <polygon id="Fill-43" fill="#FFFFFF" mask="url(#mask-30)" points="-4.83941893 53.8176751 38.2062042 53.8176751 38.2062042 -4.99887197 -4.83941893 -4.99887197"></polygon>
                </g>
                <g id="Group-48" transform="translate(768.002250, 194.145638)">
                    <mask id="mask-32" fill="white">
                        <use xlink:href="#path-31"></use>
                    </mask>
                    <g id="Clip-47"></g>
                    <polygon id="Fill-46" fill="#FFFFFF" mask="url(#mask-32)" points="-5.01081502 42.0085776 37.7373855 42.0085776 37.7373855 -4.97416253 -5.01081502 -4.97416253"></polygon>
                </g>
                <g id="Group-51" transform="translate(805.306104, 194.145638)">
                    <mask id="mask-34" fill="white">
                        <use xlink:href="#path-33"></use>
                    </mask>
                    <g id="Clip-50"></g>
                    <polygon id="Fill-49" fill="#FFFFFF" mask="url(#mask-34)" points="-4.99569183 42.0085776 37.9138227 42.0085776 37.9138227 -4.97416253 -4.99569183 -4.97416253"></polygon>
                </g>
                <g id="Group-54" transform="translate(843.618171, 181.538778)">
                    <mask id="mask-36" fill="white">
                        <use xlink:href="#path-35"></use>
                    </mask>
                    <g id="Clip-53"></g>
                    <polygon id="Fill-52" fill="#FFFFFF" mask="url(#mask-36)" points="-4.86462424 54.6154372 42.3348335 54.6154372 42.3348335 -4.99887197 -4.86462424 -4.99887197"></polygon>
                </g>
                <g id="Group-57" transform="translate(879.913813, 181.538778)">
                    <mask id="mask-38" fill="white">
                        <use xlink:href="#path-37"></use>
                    </mask>
                    <g id="Clip-56"></g>
                    <polygon id="Fill-55" fill="#FFFFFF" mask="url(#mask-38)" points="-4.8696653 53.8176751 21.3942645 53.8176751 21.3942645 -4.99887197 -4.8696653 -4.99887197"></polygon>
                </g>
                <g id="Group-60" transform="translate(895.292502, 194.145638)">
                    <mask id="mask-40" fill="white">
                        <use xlink:href="#path-39"></use>
                    </mask>
                    <g id="Clip-59"></g>
                    <polygon id="Fill-58" fill="#FFFFFF" mask="url(#mask-40)" points="-4.89832242 41.2108155 38.8429672 41.2108155 38.8429672 -4.97416253 -4.89832242 -4.97416253"></polygon>
                </g>
                <g id="Group-63" transform="translate(932.596356, 194.145638)">
                    <mask id="mask-42" fill="white">
                        <use xlink:href="#path-41"></use>
                    </mask>
                    <g id="Clip-62"></g>
                    <polygon id="Fill-61" fill="#FFFFFF" mask="url(#mask-42)" points="-4.85295287 55.3381128 41.8827272 55.3381128 41.8827272 -4.97416253 -4.85295287 -4.97416253"></polygon>
                </g>
                <g id="Group-66" transform="translate(989.808951, 181.538778)">
                    <mask id="mask-44" fill="white">
                        <use xlink:href="#path-43"></use>
                    </mask>
                    <g id="Clip-65"></g>
                    <polygon id="Fill-64" fill="#FFFFFF" mask="url(#mask-44)" points="-4.80917256 54.6154372 39.4311821 54.6154372 39.4311821 -4.99887197 -4.80917256 -4.99887197"></polygon>
                </g>
                <g id="Group-69" transform="translate(1025.600487, 194.905552)">
                    <mask id="mask-46" fill="white">
                        <use xlink:href="#path-45"></use>
                    </mask>
                    <g id="Clip-68"></g>
                    <polygon id="Fill-67" fill="#FFFFFF" mask="url(#mask-46)" points="-5.01081502 54.7776399 43.2523067 54.7776399 43.2523067 -4.93631394 -5.01081502 -4.93631394"></polygon>
                </g>
                <g id="Group-72" transform="translate(1081.556268, 181.538778)">
                    <mask id="mask-48" fill="white">
                        <use xlink:href="#path-47"></use>
                    </mask>
                    <g id="Clip-71"></g>
                    <polygon id="Fill-70" fill="#FFFFFF" mask="url(#mask-48)" points="-4.97552759 53.8176751 50.4660655 53.8176751 50.4660655 -4.99887197 -4.97552759 -4.99887197"></polygon>
                </g>
                <g id="Group-75" transform="translate(1123.652582, 194.905552)">
                    <mask id="mask-50" fill="white">
                        <use xlink:href="#path-49"></use>
                    </mask>
                    <g id="Clip-74"></g>
                    <polygon id="Fill-73" fill="#FFFFFF" mask="url(#mask-50)" points="-4.83782968 40.450902 41.9280968 40.450902 41.9280968 -4.93631394 -4.83782968 -4.93631394"></polygon>
                </g>
                <g id="Group-78" transform="translate(1160.956437, 194.145638)">
                    <mask id="mask-52" fill="white">
                        <use xlink:href="#path-51"></use>
                    </mask>
                    <g id="Clip-77"></g>
                    <polygon id="Fill-76" fill="#FFFFFF" mask="url(#mask-52)" points="-5.02434895 42.0085776 37.8902066 42.0085776 37.8902066 -4.97416253 -5.02434895 -4.97416253"></polygon>
                </g>
                <g id="Group-81" transform="translate(1198.004786, 194.145638)">
                    <mask id="mask-54" fill="white">
                        <use xlink:href="#path-53"></use>
                    </mask>
                    <g id="Clip-80"></g>
                    <polygon id="Fill-79" fill="#FFFFFF" mask="url(#mask-54)" points="-4.99065077 41.2108155 58.1637662 41.2108155 58.1637662 -4.97416253 -4.99065077 -4.97416253"></polygon>
                </g>
                <g id="Group-84" transform="translate(1251.695542, 194.145638)">
                    <mask id="mask-56" fill="white">
                        <use xlink:href="#path-55"></use>
                    </mask>
                    <g id="Clip-83"></g>
                    <polygon id="Fill-82" fill="#FFFFFF" mask="url(#mask-56)" points="-4.9134456 54.7397913 42.2860121 54.7397913 42.2860121 -4.97416253 -4.9134456 -4.97416253"></polygon>
                </g>
                <g id="Group-87" transform="translate(1292.024033, 181.538778)">
                    <mask id="mask-58" fill="white">
                        <use xlink:href="#path-57"></use>
                    </mask>
                    <g id="Clip-86"></g>
                    <polygon id="Fill-85" fill="#FBFBFB" mask="url(#mask-58)" points="-4.90336348 53.8176751 21.3656074 53.8176751 21.3656074 -4.99887197 -4.90336348 -4.99887197"></polygon>
                </g>
                <g id="Group-90" transform="translate(1308.908136, 194.145638)">
                    <mask id="mask-60" fill="white">
                        <use xlink:href="#path-59"></use>
                    </mask>
                    <g id="Clip-89"></g>
                    <polygon id="Fill-88" fill="#FFFFFF" mask="url(#mask-60)" points="-4.94024016 42.0085776 37.8079604 42.0085776 37.8079604 -4.97416253 -4.94024016 -4.97416253"></polygon>
                </g>
                <g id="Group-93" transform="translate(673.230296, 208.520960)">
                    <mask id="mask-62" fill="white">
                        <use xlink:href="#path-61"></use>
                    </mask>
                    <g id="Clip-92"></g>
                    <polygon id="Fill-91" fill="#FFFFFF" mask="url(#mask-62)" points="-4.88478848 11.0289122 34.4482946 11.0289122 34.4482946 -4.97605076 -4.88478848 -4.97605076"></polygon>
                </g>
                <g id="Group-96" transform="translate(0.000000, 0.000000)">
                    <mask id="mask-64" fill="white">
                        <use xlink:href="#path-63"></use>
                    </mask>
                    <g id="Clip-95"></g>
                    <polygon id="Fill-94" fill="#FFFFFF" mask="url(#mask-64)" points="-4.87160479 124.473072 106.681538 124.473072 106.681538 -4.84859821 -4.87160479 -4.84859821"></polygon>
                </g>
                <g id="Group-99" transform="translate(109.135527, 0.000000)">
                    <mask id="mask-66" fill="white">
                        <use xlink:href="#path-65"></use>
                    </mask>
                    <g id="Clip-98"></g>
                    <polygon id="Fill-97" fill="#FFFFFF" mask="url(#mask-66)" points="-4.98208097 124.473072 29.9010556 124.473072 29.9010556 -4.84859821 -4.98208097 -4.84859821"></polygon>
                </g>
                <g id="Group-102" transform="translate(141.398320, 0.000000)">
                    <mask id="mask-68" fill="white">
                        <use xlink:href="#path-67"></use>
                    </mask>
                    <g id="Clip-101"></g>
                    <polygon id="Fill-100" fill="#FFFFFF" mask="url(#mask-68)" points="-4.89033365 124.473072 29.993307 124.473072 29.993307 -4.84859821 -4.89033365 -4.84859821"></polygon>
                </g>
                <g id="Group-105" transform="translate(173.661113, 32.529200)">
                    <mask id="mask-70" fill="white">
                        <use xlink:href="#path-69"></use>
                    </mask>
                    <g id="Clip-104"></g>
                    <polygon id="Fill-103" fill="#FFFFFF" mask="url(#mask-70)" points="-4.79808222 91.9438723 106.755061 91.9438723 106.755061 -4.85865568 -4.79808222 -4.85865568"></polygon>
                </g>
                <g id="Group-108" transform="translate(358.419464, 0.000000)">
                    <mask id="mask-72" fill="white">
                        <use xlink:href="#path-71"></use>
                    </mask>
                    <g id="Clip-107"></g>
                    <polygon id="Fill-106" fill="#FFFFFF" mask="url(#mask-72)" points="-4.99460669 124.473072 106.558537 124.473072 106.558537 -4.84859821 -4.99460669 -4.84859821"></polygon>
                </g>
                <g id="Group-111" transform="translate(452.687312, 32.529200)">
                    <mask id="mask-74" fill="white">
                        <use xlink:href="#path-73"></use>
                    </mask>
                    <g id="Clip-110"></g>
                    <polygon id="Fill-109" fill="#FFFFFF" mask="url(#mask-74)" points="-4.84135843 91.9438723 106.710777 91.9438723 106.710777 -4.85865568 -4.84135843 -4.85865568"></polygon>
                </g>
                <g id="Group-114" transform="translate(561.822839, 32.529200)">
                    <mask id="mask-76" fill="white">
                        <use xlink:href="#path-75"></use>
                    </mask>
                    <g id="Clip-113"></g>
                    <polygon id="Fill-112" fill="#FFFFFF" mask="url(#mask-76)" points="-4.95032228 91.9438723 106.603325 91.9438723 106.603325 -4.85865568 -4.95032228 -4.85865568"></polygon>
                </g>
                <g id="Group-117" transform="translate(670.709765, 0.000000)">
                    <mask id="mask-78" fill="white">
                        <use xlink:href="#path-77"></use>
                    </mask>
                    <g id="Clip-116"></g>
                    <polygon id="Fill-115" fill="#FFFFFF" mask="url(#mask-78)" points="-4.81421362 124.473072 106.739434 124.473072 106.739434 -4.84859821 -4.81421362 -4.84859821"></polygon>
                </g>
                <g id="Group-120" transform="translate(779.852196, 32.529200)">
                    <mask id="mask-80" fill="white">
                        <use xlink:href="#path-79"></use>
                    </mask>
                    <g id="Clip-119"></g>
                    <polygon id="Fill-118" fill="#FFFFFF" mask="url(#mask-80)" points="-4.93360985 91.9438723 106.620038 91.9438723 106.620038 -4.85865568 -4.93360985 -4.85865568"></polygon>
                </g>
                <g id="Group-123" transform="translate(888.987723, 32.529200)">
                    <mask id="mask-82" fill="white">
                        <use xlink:href="#path-81"></use>
                    </mask>
                    <g id="Clip-122"></g>
                    <polygon id="Fill-121" fill="#FFFFFF" mask="url(#mask-82)" points="-5.04106138 91.9438723 106.512586 91.9438723 106.512586 -4.85865568 -5.04106138 -4.85865568"></polygon>
                </g>
                <g id="Group-126" transform="translate(997.874649, 0.000000)">
                    <mask id="mask-84" fill="white">
                        <use xlink:href="#path-83"></use>
                    </mask>
                    <g id="Clip-125"></g>
                    <polygon id="Fill-124" fill="#FFFFFF" mask="url(#mask-84)" points="-4.90495273 124.473072 29.979192 124.473072 29.979192 -4.84859821 -4.90495273 -4.84859821"></polygon>
                </g>
                <g id="Group-129" transform="translate(1030.137442, 32.529200)">
                    <mask id="mask-86" fill="white">
                        <use xlink:href="#path-85"></use>
                    </mask>
                    <g id="Clip-128"></g>
                    <polygon id="Fill-127" fill="#FFFFFF" mask="url(#mask-86)" points="-4.81421362 91.9438723 106.739434 91.9438723 106.739434 -4.85865568 -4.81421362 -4.85865568"></polygon>
                </g>
                <g id="Group-132" transform="translate(1139.279873, 32.529200)">
                    <mask id="mask-88" fill="white">
                        <use xlink:href="#path-87"></use>
                    </mask>
                    <g id="Clip-131"></g>
                    <polygon id="Fill-130" fill="#FFFFFF" mask="url(#mask-88)" points="-4.92856879 124.463015 106.625079 124.463015 106.625079 -4.85865568 -4.92856879 -4.85865568"></polygon>
                </g>
                <g id="Group-135" transform="translate(1248.415400, 32.529200)">
                    <mask id="mask-90" fill="white">
                        <use xlink:href="#path-89"></use>
                    </mask>
                    <g id="Clip-134"></g>
                    <polygon id="Fill-133" fill="#FFFFFF" mask="url(#mask-90)" points="-5.04106138 124.463015 106.512586 124.463015 106.512586 -4.85865568 -5.04106138 -4.85865568"></polygon>
                </g>
            </g>
            <g id="Group-138">
                <mask id="mask-92" fill="white">
                    <use xlink:href="#path-91"></use>
                </mask>
                <g id="Clip-137"></g>
                <polygon id="Fill-136" fill="#FF6D00" mask="url(#mask-92)" points="-7.06343812 448.768858 439.344829 448.768858 439.344829 -7.11172618 -7.06343812 -7.11172618"></polygon>
            </g>
        </g>
    </g>
</svg>